<svg width="1975" height="2437" viewBox="0 0 1975 2437" fill="none" xmlns="http://www.w3.org/2000/svg">
<path d="M929.185 1619.16C948.434 1629.04 971.098 1632.81 997.818 1632.81C1023.49 1632.81 1043.79 1630.3 1060.69 1622.86V1472.19C1009.32 1485.93 980.555 1485.73 929.185 1472.19V1619.16Z" fill="#FF8B18"/>
<path d="M997.818 1282.76C971.505 1283.42 949.549 1280.8 929.185 1273.19V1380.47C949.12 1390.82 971.887 1394.97 997.818 1394.09C1021.77 1393.27 1042.54 1389.15 1060.69 1379.69V1272.78C1041.98 1279.49 1021.42 1282.17 997.818 1282.76Z" fill="#FF8B18"/>
<path d="M991.579 1832.2C1020.76 1832.75 1043.3 1828.39 1060.69 1821.52V1710.35C1008.59 1726.23 979.809 1725.69 929.185 1710.35V1821.18C945.347 1827.48 965.773 1831.71 991.579 1832.2Z" fill="#FF8B18"/>
<path d="M1118.77 1312.67V1231.81C1100.62 1252.47 1081.84 1265.2 1060.69 1272.78V1379.69C1083.96 1367.55 1102.92 1346.64 1118.77 1312.67Z" fill="#D75427"/>
<path d="M1060.69 1622.86C1085.18 1612.07 1102.54 1590.91 1118.77 1551.94V1468.31V1450.03V1429.46V1416.8V1405.72V1399.63C1103 1412.5 1081.33 1422.29 1060.69 1429.46V1472.19V1622.86Z" fill="#D75427"/>
<path d="M1118.77 1757.98V1642.78C1118.77 1642.78 1106.29 1665.57 1060.69 1678.05V1710.35V1821.52C1112.83 1800.96 1118.77 1757.98 1118.77 1757.98Z" fill="#D75427"/>
<path d="M868.232 1231.81V1312.67C884.726 1345.93 904.843 1367.82 929.185 1380.47V1273.19C908.184 1265.34 888.877 1252.18 868.232 1231.81Z" fill="#FEEECC"/>
<path d="M868.232 1399.63V1539.76C883.354 1581.27 903.143 1605.8 929.185 1619.16V1472.19C980.555 1485.73 1009.32 1485.93 1060.69 1472.19V1429.46C1027.97 1440.83 997.818 1445.6 997.818 1445.6C997.818 1445.6 910.154 1435.98 868.232 1399.63Z" fill="#FEEECC"/>
<path d="M868.232 1642.78V1751.34C868.232 1751.34 872.306 1799.03 929.185 1821.18V1710.35C979.809 1725.69 1008.59 1726.23 1060.69 1710.35V1678.05C1044.32 1682.53 1023.68 1685.69 997.818 1685.98C899.908 1687.09 868.232 1642.78 868.232 1642.78Z" fill="#FEEECC"/>
<path fill-rule="evenodd" clip-rule="evenodd" d="M650.814 885.084L941.664 1027.43L956.543 1039.61L969.981 1055.12L981.02 1073.4L988.699 1093.34L997.818 1073.4L1008.86 1055.12L1022.3 1039.61L1037.17 1027.43C1037.17 1027.43 1338.1 875.114 1343.38 880.099C1348.66 885.084 1343.38 923.301 1343.38 923.301C1343.38 923.301 1406.74 880.653 1411.54 885.637C1416.34 890.622 1411.54 969.826 1411.54 969.826C1411.54 969.826 1479.69 927.732 1484.01 932.716C1488.33 937.701 1484.01 1015.24 1484.01 1015.24C1484.01 1015.24 1536.32 983.672 1550.72 987.549C1565.12 991.427 1560.8 1612.87 1550.72 1623.39C1540.64 1633.92 1406.74 1695.95 1406.74 1695.95H1491.69C1491.69 1695.95 1510.63 1711.22 1509.93 1725.3C1509.27 1738.35 1491.69 1751.34 1491.69 1751.34H1298.27L1208.52 1803.4H1554.56C1554.56 1803.4 1577.15 1818.34 1575.68 1833.31C1574.38 1846.53 1554.56 1857.12 1554.56 1857.12H1097.17C1061.89 1880.91 1038.45 1887.99 990.619 1890.36C946.178 1887.92 924.659 1877.05 886.47 1857.12H289.89C289.89 1857.12 267.891 1847.61 266.853 1833.86C265.724 1818.93 289.89 1806.17 289.89 1806.17H793.839L682.49 1750.78H478.991C478.991 1750.78 457.302 1739.77 456.913 1725.86C456.511 1711.48 478.991 1699.27 478.991 1699.27H574.021L422.837 1622.28V983.118L491.95 1017.46V932.716L564.902 968.718V878.991L640.255 921.085V878.991L650.814 885.084ZM956.543 1113.28L966.142 1181.4L919.106 1119.37L603.298 969.826L650.814 943.794L919.106 1073.4L956.543 1113.28ZM882.15 1149.83L922.946 1186.94H831.755L525.066 1039.61V1027.43L531.786 1001.4L560.103 1009.7L564.902 1001.4L882.15 1149.83ZM1022.3 1113.28L1014.62 1181.4L1060.69 1119.37L1375.06 969.826L1330.9 943.794L1060.69 1073.4L1022.3 1113.28ZM1093.81 1149.83L1055.89 1186.94H1137.48L1460.01 1027.43L1446.09 1017.46V1001.4L1421.62 1009.7L1415.38 1001.4L1093.81 1149.83ZM478.991 1073.4L820.236 1231.81V1282.76V1699.27V1757.98L478.991 1584.07V1073.4ZM1495.53 1077.83L1166.76 1231.81V1282.76L1452.33 1149.83V1561.36L1170.6 1699.27V1753.55L1495.53 1590.16V1077.83ZM1118.77 1231.81V1312.67C1102.92 1346.64 1083.96 1367.55 1060.69 1379.69C1042.54 1389.15 1021.77 1393.27 997.818 1394.09C971.887 1394.97 949.12 1390.82 929.185 1380.47C904.843 1367.82 884.726 1345.93 868.232 1312.67V1231.81C888.877 1252.18 908.184 1265.34 929.185 1273.19C949.549 1280.8 971.505 1283.42 997.818 1282.76C1021.42 1282.17 1041.98 1279.49 1060.69 1272.78C1081.84 1265.2 1100.62 1252.47 1118.77 1231.81ZM868.232 1539.76V1399.63C910.154 1435.98 997.818 1445.6 997.818 1445.6C997.818 1445.6 1027.97 1440.83 1060.69 1429.46C1081.33 1422.29 1103 1412.5 1118.77 1399.63V1405.72V1416.8V1429.46V1450.03V1468.31V1551.94C1102.54 1590.91 1085.18 1612.07 1060.69 1622.86C1043.79 1630.3 1023.49 1632.81 997.818 1632.81C971.098 1632.81 948.434 1629.04 929.185 1619.16C903.143 1605.8 883.354 1581.27 868.232 1539.76ZM1118.77 1642.78V1757.98C1118.77 1757.98 1112.83 1800.96 1060.69 1821.52C1043.3 1828.39 1020.76 1832.75 991.579 1832.2C965.773 1831.71 945.347 1827.48 929.185 1821.18C872.306 1799.03 868.232 1751.34 868.232 1751.34V1642.78C868.232 1642.78 899.908 1687.09 997.818 1685.98C1023.68 1685.69 1044.32 1682.53 1060.69 1678.05C1106.29 1665.57 1118.77 1642.78 1118.77 1642.78Z" fill="#002E3B"/>
<path d="M820.236 1231.81L478.991 1073.4V1584.07L820.236 1757.98V1699.27L531.786 1559.14V1149.83L820.236 1282.76V1231.81Z" fill="#FEEECC"/>
<path d="M1055.89 1186.94L1093.81 1149.83L1415.38 1001.4L1421.62 1009.7L1446.09 1001.4V1017.46L1460.01 1027.43L1137.48 1186.94H1055.89Z" fill="#FEEECC"/>
<path d="M1014.62 1181.4L1022.3 1113.28L1060.69 1073.4L1330.9 943.794L1375.06 969.826L1060.69 1119.37L1014.62 1181.4Z" fill="#FEEECC"/>
<path d="M966.142 1181.4L956.543 1113.28L919.106 1073.4L650.814 943.794L603.298 969.826L919.106 1119.37L966.142 1181.4Z" fill="#FEEECC"/>
<path d="M922.946 1186.94L882.15 1149.83L564.902 1001.4L560.103 1009.7L531.786 1001.4L525.066 1027.43V1039.61L831.755 1186.94H922.946Z" fill="#FEEECC"/>
<path fill-rule="evenodd" clip-rule="evenodd" d="M154.544 671.481C154.544 567.983 238.445 484.082 341.942 484.082H1631.62C1735.11 484.082 1819.02 567.983 1819.02 671.48V2079.04C1819.02 2182.53 1735.11 2266.43 1631.62 2266.43H341.942C238.445 2266.43 154.544 2182.53 154.544 2079.04V671.481ZM941.664 1027.43L650.814 885.084L640.255 878.991V921.085L564.902 878.991V968.718L491.95 932.716V1017.46L422.837 983.118V1622.28L574.021 1699.27H478.991C478.991 1699.27 456.511 1711.48 456.913 1725.86C457.302 1739.77 478.991 1750.78 478.991 1750.78H682.49L793.839 1806.17H289.89C289.89 1806.17 265.724 1818.93 266.853 1833.86C267.891 1847.61 289.89 1857.12 289.89 1857.12H886.47C924.659 1877.05 946.178 1887.92 990.619 1890.36C1038.45 1887.99 1061.89 1880.91 1097.17 1857.12H1554.56C1554.56 1857.12 1574.38 1846.53 1575.68 1833.31C1577.15 1818.34 1554.56 1803.4 1554.56 1803.4H1208.52L1298.27 1751.34H1491.69C1491.69 1751.34 1509.27 1738.35 1509.93 1725.3C1510.63 1711.22 1491.69 1695.95 1491.69 1695.95H1406.74C1406.74 1695.95 1540.64 1633.92 1550.72 1623.39C1560.8 1612.87 1565.12 991.427 1550.72 987.549C1536.32 983.672 1484.01 1015.24 1484.01 1015.24C1484.01 1015.24 1488.33 937.701 1484.01 932.716C1479.69 927.732 1411.54 969.826 1411.54 969.826C1411.54 969.826 1416.34 890.622 1411.54 885.637C1406.74 880.653 1343.38 923.301 1343.38 923.301C1343.38 923.301 1348.66 885.084 1343.38 880.099C1338.1 875.114 1037.17 1027.43 1037.17 1027.43L1022.3 1039.61L1008.86 1055.12L997.818 1073.4L988.699 1093.34L981.02 1073.4L969.981 1055.12L956.543 1039.61L941.664 1027.43ZM531.786 1149.83L820.236 1282.76V1699.27L531.786 1559.14V1149.83Z" fill="#FF8B18"/>
<path d="M1166.76 1231.81L1495.53 1077.83V1590.16L1170.6 1753.55V1699.27L1452.33 1561.36V1149.83L1166.76 1282.76V1231.81Z" fill="#D75427"/>
<path d="M466.72 2041.52C437.413 2040.59 408.947 2040.03 381.32 2039.84V2186H311.32V2039.84C283.507 2040.03 255.133 2040.59 226.2 2041.52V1982.72H466.72V2041.52ZM655.007 1982.44H724.447V2093.88C724.074 2121.32 714.647 2144 696.167 2161.92C677.874 2179.84 646.98 2188.8 603.487 2188.8C559.434 2188.8 529.287 2180.31 513.047 2163.32C496.807 2146.15 488.874 2123.65 489.247 2095.84V1982.44H558.687V2091.36C558.687 2099.57 559.247 2106.29 560.367 2111.52C561.674 2116.56 565.594 2121.32 572.127 2125.8C578.847 2130.28 589.58 2132.52 604.327 2132.52C620.38 2132.52 632.14 2130.28 639.607 2125.8C647.074 2121.13 651.46 2116 652.767 2110.4C654.26 2104.8 655.007 2097.61 655.007 2088.84V1982.44ZM987.345 2041.52C958.038 2040.59 929.572 2040.03 901.945 2039.84V2186H831.945V2039.84C804.132 2040.03 775.758 2040.59 746.825 2041.52V1982.72H987.345V2041.52ZM1117.79 2188.8C1075.05 2188.8 1043.59 2179.56 1023.43 2161.08C1003.27 2142.41 993.192 2116.28 993.192 2082.68C993.192 2049.45 1003.18 2023.51 1023.15 2004.84C1043.31 1986.17 1074.86 1976.84 1117.79 1976.84C1160.91 1976.84 1192.46 1986.17 1212.43 2004.84C1232.59 2023.51 1242.67 2049.45 1242.67 2082.68C1242.67 2116.47 1232.69 2142.6 1212.71 2161.08C1192.74 2179.56 1161.1 2188.8 1117.79 2188.8ZM1117.79 2131.68C1138.51 2131.68 1153.45 2127.76 1162.59 2119.92C1171.74 2111.89 1176.31 2099.48 1176.31 2082.68C1176.31 2066.25 1171.74 2054.03 1162.59 2046C1153.45 2037.97 1138.51 2033.96 1117.79 2033.96C1097.26 2033.96 1082.42 2037.97 1073.27 2046C1064.13 2054.03 1059.55 2066.25 1059.55 2082.68C1059.55 2099.29 1064.13 2111.61 1073.27 2119.64C1082.42 2127.67 1097.26 2131.68 1117.79 2131.68ZM1489.83 2050.48C1489.83 2066.72 1485.82 2080.44 1477.79 2091.64C1469.95 2102.84 1456.42 2110.96 1437.19 2116C1439.43 2118.99 1441.02 2121.32 1441.95 2123L1487.31 2186H1411.15C1402.94 2170.69 1389.96 2149.04 1372.23 2121.04H1331.07V2186H1264.99C1266.48 2149.79 1267.23 2115.91 1267.23 2084.36C1267.23 2052.81 1266.48 2018.93 1264.99 1982.72H1331.07V1983H1388.47C1426.18 1983 1452.5 1989.07 1467.43 2001.2C1482.36 2013.33 1489.83 2029.76 1489.83 2050.48ZM1331.07 2036.76V2068.68H1368.87C1384.74 2068.68 1396.68 2068.21 1404.71 2067.28C1412.92 2066.16 1418.62 2064.48 1421.79 2062.24C1424.96 2060 1426.55 2056.73 1426.55 2052.44C1426.55 2048.33 1425.06 2045.16 1422.07 2042.92C1419.08 2040.68 1413.48 2039.09 1405.27 2038.16C1397.06 2037.23 1384.92 2036.76 1368.87 2036.76H1331.07ZM1512.18 2161.92C1518.52 2152.4 1523.75 2143.53 1527.86 2135.32C1532.15 2127.11 1536.26 2117.59 1540.18 2106.76C1553.43 2114.41 1568.83 2120.39 1586.38 2124.68C1603.92 2128.97 1620.26 2131.12 1635.38 2131.12C1650.87 2131.12 1661.79 2129.81 1668.14 2127.2C1674.48 2124.4 1677.66 2121.41 1677.66 2118.24C1677.66 2106.85 1660.3 2101.16 1625.58 2101.16C1587.5 2101.16 1559.87 2097.24 1542.7 2089.4C1525.52 2081.37 1516.94 2068.49 1516.94 2050.76C1516.94 2025.56 1527.39 2006.99 1548.3 1995.04C1569.2 1983.09 1596.36 1977.12 1629.78 1977.12C1649.19 1977.12 1669.07 1979.64 1689.42 1984.68C1709.95 1989.53 1728.43 1996.25 1744.86 2004.84C1739.44 2017.16 1733.75 2032.19 1727.78 2049.92C1726.66 2053.65 1725.72 2056.45 1724.98 2058.32C1715.46 2050.67 1701.08 2044.32 1681.86 2039.28C1662.63 2034.05 1645.64 2031.44 1630.9 2031.44C1613.16 2031.44 1601.22 2032.65 1595.06 2035.08C1588.9 2037.32 1585.82 2040.68 1585.82 2045.16C1585.82 2049.64 1590.02 2053.28 1598.42 2056.08C1607 2058.69 1619.32 2060 1635.38 2060C1674.95 2060 1703.7 2064.57 1721.62 2073.72C1739.54 2082.68 1748.5 2096.49 1748.5 2115.16C1748.5 2141.29 1738.98 2160.15 1719.94 2171.72C1700.9 2183.11 1672.06 2188.8 1633.42 2188.8C1612.7 2188.8 1591.6 2186.56 1570.14 2182.08C1548.67 2177.41 1529.35 2170.69 1512.18 2161.92Z" fill="#002E3B"/>
<path fill-rule="evenodd" clip-rule="evenodd" d="M971.696 917.042C975.78 925.186 987.375 925.264 991.569 917.177L1127.41 655.228V156.798C1127.41 129.908 1120.36 103.488 1106.97 80.1696L1101.91 71.3513C1084.46 40.9607 1055.46 18.9173 1021.51 10.233V10.233C995.479 3.57538 968.026 5.15798 942.936 14.7625L924.674 21.7528C897.683 32.0848 874.733 50.8275 859.217 75.21V75.21C845.362 96.9828 838.055 122.279 838.169 148.086L840.395 655.228L971.696 917.042ZM883.111 624.765V342.291H936.865H1015.58H1079.41V624.765C1074.59 633.161 1059.31 644.49 1055.41 643.596C1052.42 642.91 1028.18 634.958 1015.58 624.765C1005.55 635.213 997.465 639.488 977.661 643.596C958.885 643.721 949.797 640.019 936.865 624.765C928.617 635.64 922.392 640.384 909.028 646.92C898.05 642.157 892.435 636.997 883.111 624.765ZM906.148 691.229H911.709C921.797 691.229 931.601 687.894 939.596 681.743L944.544 677.936L967.124 686.058C976.455 689.414 986.624 689.647 996.098 686.721L1003.1 684.559L1015.58 680.706L1055.41 691.229L1011.74 795.91L985.34 789.818L957.023 795.91L906.148 691.229ZM883.111 290.228V238.164H940.705H1019.42V290.228H940.705H883.111ZM883.111 192.193V143.02C883.111 120.991 892.035 99.9027 907.848 84.5664L910.649 81.8502C922.113 70.7311 936.595 63.2289 952.29 60.2772L977.939 55.4537C987.905 53.5795 998.133 53.5833 1008.1 55.4651L1019.42 57.6024L1047.74 72.6582C1057.16 77.6684 1065.07 85.1137 1070.64 94.2188V94.2188C1076.38 103.596 1079.41 114.375 1079.41 125.368V192.193H1019.42H940.705H883.111Z" fill="#002C3A"/>
<path d="M907.848 84.5664C892.035 99.9027 883.111 120.991 883.111 143.02V192.193H940.705V131.536C940.705 121.175 943.01 110.819 948.64 102.121C966.615 74.351 985.63 66.1361 1019.42 57.6024L1008.1 55.4651C998.133 53.5833 987.905 53.5795 977.939 55.4537L952.29 60.2772C936.595 63.2289 922.113 70.7311 910.649 81.8502L907.848 84.5664Z" fill="#FFF0D3"/>
<path d="M883.111 238.164V290.228H940.705V238.164H883.111Z" fill="#FFF0D3"/>
<path d="M883.111 342.291V624.765C892.435 636.997 898.05 642.157 909.028 646.92C922.392 640.384 928.617 635.64 936.865 624.765V342.291H883.111Z" fill="#FFF0D3"/>
<path d="M939.596 681.743C931.601 687.894 921.797 691.229 911.709 691.229H906.148L957.023 795.91L985.34 789.818L1003.1 684.559L996.098 686.721C986.624 689.647 976.455 689.414 967.124 686.058L944.544 677.936L939.596 681.743Z" fill="#FFF0D3"/>
<path d="M1019.42 192.193V57.6024C985.63 66.1361 966.615 74.351 948.64 102.121C943.01 110.819 940.705 121.175 940.705 131.536V192.193H1019.42Z" fill="#FF8B18"/>
<path d="M936.865 624.765C949.797 640.019 958.885 643.721 977.661 643.596C997.465 639.488 1005.55 635.213 1015.58 624.765V342.291H936.865V624.765Z" fill="#FF8B18"/>
<path d="M1070.64 94.2188C1065.07 85.1137 1057.16 77.6684 1047.74 72.6582L1019.42 57.6024V192.193H1079.41V125.368C1079.41 114.375 1076.38 103.596 1070.64 94.2188V94.2188Z" fill="#D04B20"/>
<path d="M1015.58 624.765C1028.18 634.958 1052.42 642.91 1055.41 643.596C1059.31 644.49 1074.59 633.161 1079.41 624.765V342.291H1015.58V624.765Z" fill="#D04B20"/>
<path d="M1019.42 290.228V238.164H940.705V290.228H1019.42Z" fill="#A3C0C1"/>
<path d="M1055.41 691.229L1015.58 680.706L1003.1 684.559L985.34 789.818L1011.74 795.91L1055.41 691.229Z" fill="#CBBB9B"/>
<path d="M791.92 434.234H261.574C216.877 447.773 195.332 459.959 163.183 490.174C133.669 521.475 121.283 543.624 111.829 597.071V2154.55C121.529 2199.67 132.413 2220.77 157.904 2253.69C201.88 2290.26 228.877 2304.23 280.772 2317.94H1702.39C1750.39 2303.59 1774.11 2291.73 1806.06 2258.13C1838.52 2218.81 1850.86 2194.9 1859.33 2147.91V575.554C1859.33 571.126 1858.32 566.749 1856.35 562.787C1842.74 535.48 1832.88 519.242 1812.78 494.605C1796.15 474.235 1783.64 467.527 1762.86 454.173C1741.97 440.746 1727.74 440.487 1703.83 438.111L1184.52 434.234V326.783H1703.83C1747.62 327.405 1771.51 330.559 1812.78 342.291C1859.43 365 1884.47 380.983 1924.61 422.602C1957.66 469.211 1970.86 499.533 1975 568.824C1975 568.824 1975 2048.21 1975 2147.91C1975 2247.6 1897.25 2362.25 1897.25 2362.25C1896.73 2361.28 1854.14 2427.19 1749.9 2434.26C1621.07 2442.99 669.295 2425.35 209.739 2434.26C158.401 2419.6 131.061 2405.07 84.4714 2370.01C37.2799 2324.45 19.3824 2290.11 0 2216.03V535.592C13.786 473.154 29.7237 443.344 69.113 397.124C110.842 356.244 138.155 341.032 193.42 326.783H791.92V434.234Z" fill="#002C3A"/>
<circle cx="332" cy="1724" r="35" fill="#002E3B"/>
<circle cx="1661" cy="1724" r="35" fill="#002E3B"/>
<circle cx="1673" cy="1848" r="35" fill="#002E3B"/>
</svg>
