<svg width="686" height="557" viewBox="0 0 686 557" fill="none" xmlns="http://www.w3.org/2000/svg">
<path fill-rule="evenodd" clip-rule="evenodd" d="M343.499 266C391.548 266 446.5 213.5 425 156.5V111L466 93.25L477 88.4878L507 75.5L343.499 0L185 75.5L264.499 111V156.5C239 207.5 295.451 266 343.499 266ZM346.5 152L297.5 140.04L293.5 139C269.695 196.177 293.5 239 346.5 244C392.5 244 418.422 195.049 395 139L346.5 152ZM288.5 98.5L296 104C318.02 94.5312 334.599 90.5592 352 91.6909C365.264 92.5534 379.005 96.3812 396 103L401 98.5C383.734 91.1966 369.466 86.7253 356 85.0589C334.448 82.3923 314.948 86.9095 288.5 98.5ZM236 73.5L264.499 86L266 81L257 76.5L345.5 38.5L434.5 76.5L425 81V86L453.5 73.5L345.5 25.5L236 73.5Z" fill="#012136"/>
<path d="M466 93.25V167C459.36 169.937 456.567 172.714 453.5 180C452.459 188.726 453.211 192.592 456.5 198V228.35C456.5 230.106 458.6 231.01 459.875 229.802L462.624 227.198C463.899 225.99 466 226.894 466 228.65V241C466 241 468.597 246 471.5 246C474.402 246 477 241 477 241V228.22C477 226.533 478.96 225.604 480.266 226.673L486.366 231.664C487.019 232.198 488 231.733 488 230.89V198C491.043 192.112 491.873 188.214 491.5 180C487.413 172.451 484.286 169.53 477 167V88.4878L466 93.25Z" fill="#012136"/>
<path fill-rule="evenodd" clip-rule="evenodd" d="M453.5 73.5L345.5 25.5V38.5L434.5 76.5L425 81V86L453.5 73.5Z" fill="#C84900"/>
<path fill-rule="evenodd" clip-rule="evenodd" d="M401 98.5C383.734 91.1966 369.466 86.7253 356 85.0589L352 91.6909C365.264 92.5534 379.005 96.3812 396 103L401 98.5Z" fill="#C84900"/>
<path fill-rule="evenodd" clip-rule="evenodd" d="M346.5 152V244C392.5 244 418.422 195.049 395 139L346.5 152Z" fill="#C64A01"/>
<path d="M236 73.5L264.499 86L266 81L257 76.5L345.5 38.5V25.5L236 73.5Z" fill="white"/>
<path d="M288.5 98.5L296 104C318.02 94.5312 334.599 90.5592 352 91.6909L356 85.0589C334.448 82.3923 314.948 86.9095 288.5 98.5Z" fill="white"/>
<path d="M293.5 139C269.695 196.177 293.5 239 346.5 244C287.201 234.225 284.265 181.5 297.5 140.04L293.5 139Z" fill="white"/>
<path d="M346.5 152L297.5 140.04C284.265 181.5 287.201 234.225 346.5 244V152Z" fill="#F47601"/>
<path fill-rule="evenodd" clip-rule="evenodd" d="M142 262.5V504.5H42.9997C31.6264 512.701 31.8212 523.009 42.9997 525.5C54.1781 527.991 90.7253 523.777 90.9997 525.5C96.0914 541.522 102.905 548.516 123 557H567.5C583.809 551.845 590.774 545.253 598.5 525.5C598.5 525.5 642.831 524.595 646.5 525.5C650.168 526.405 661.117 513.667 646.5 504.5H546V262.5C457.531 261.563 412.808 270.856 343.499 308.5C271.305 268.263 226.763 259.635 142 262.5ZM164 504.5V285C233.11 281.48 269.672 292.418 332.5 326V333V540C302.905 514.496 285.862 499.999 172 504.182C169.385 504.278 166.718 504.384 164 504.5ZM356 326C418.194 294.761 454.654 283.957 524.5 285V504.5C521.45 504.452 518.45 504.406 515.5 504.365C436.937 503.256 393.184 505.014 356 540V333V326ZM261.5 525.5H118.5C121.475 532.325 124.985 534.437 132 537.5H290L261.5 525.5ZM426 525.5L400.5 537.5H556.5C564.94 535.536 568.574 533.431 570.5 525.5H426Z" fill="#012136"/>
<path d="M164 285V504.5C166.718 504.384 169.385 504.278 172 504.182V294.5C237.543 291.892 272.122 303.788 332.5 333V326C269.672 292.418 233.11 281.48 164 285Z" fill="white"/>
<path d="M356 333V540C393.184 505.014 436.937 503.256 515.5 504.365V294.5C450.194 294.228 415.687 304.768 356 333Z" fill="#C64A01"/>
<path d="M524.5 285C454.654 283.957 418.194 294.761 356 326V333C415.687 304.768 450.194 294.228 515.5 294.5V504.365C518.45 504.406 521.45 504.452 524.5 504.5V285Z" fill="white"/>
<path d="M118.5 525.5H261.5L290 537.5H132C124.985 534.437 121.475 532.325 118.5 525.5Z" fill="white"/>
<path d="M400.5 537.5L426 525.5H570.5C568.574 533.431 564.94 535.536 556.5 537.5H400.5Z" fill="white"/>
<path d="M0 300H113.5L57.5 350L0 300Z" fill="#012137"/>
<path d="M0 306.5V372.5L34 338L0 306.5Z" fill="#012136"/>
<path d="M34 338L0 372.5H113.5L78 339.246L57.5 357L34 338Z" fill="#C74A01"/>
<path d="M113.5 372.5V308.5L78 339.246L113.5 372.5Z" fill="#F47601"/>
<path d="M16 393.5C9.49559 397.582 8.35229 400.84 8.5 407.5H109C109.138 399.959 107.992 396.464 100.5 393.5H16Z" fill="#012136"/>
<path d="M50.5 439V435H56V428H61.5V435H66.5V439H61.5V445.5H56V439H50.5Z" fill="#012136"/>
<path fill-rule="evenodd" clip-rule="evenodd" d="M14.5 475.5C8.97715 475.5 4.5 471.023 4.5 465.5V411.5C4.5 409.291 6.29086 407.5 8.5 407.5V407.5H109V407.5C111.485 407.5 113.5 409.515 113.5 412V465.5C113.5 471.023 109.023 475.5 103.5 475.5H14.5ZM59 412C72.8071 412.276 83.7761 423.693 83.5 437.5C83.2294 451.028 72.5283 461.729 59 462C45.1929 462.276 33.7761 451.307 33.5 437.5C33.2184 423.42 44.9196 411.718 59 412ZM50.5 439V435H56V428H61.5V435H66.5V439H61.5V445.5H56V439H50.5Z" fill="#C64901"/>
<path fill-rule="evenodd" clip-rule="evenodd" d="M83.5 437.5C83.7761 423.693 72.8071 412.276 59 412C44.9196 411.718 33.2184 423.42 33.5 437.5C33.7761 451.307 45.1929 462.276 59 462C72.5283 461.729 83.2294 451.028 83.5 437.5ZM50.5 435V439H56V445.5H61.5V439H66.5V435H61.5V428H56V435H50.5Z" fill="white"/>
<path d="M585.5 354V356H655.5V354H585.5Z" fill="#012136"/>
<path fill-rule="evenodd" clip-rule="evenodd" d="M686 339.163C686 341.113 684.619 342.74 682.807 343.462C677.845 345.437 676 348.962 676 354C676 358.758 678.322 363.454 682.429 365.992C684.375 367.195 686 369.103 686 371.391V374H672.5H662C662 374 619.032 374 591.5 374C587.204 374 580.5 374 580.5 374C580.5 374 565 368 565 354C565 340 580.5 335 580.5 335H681.837C684.136 335 686 336.864 686 339.163V339.163ZM583.5 363.5C583.5 363.5 578.5 360 578.5 354C578.5 348 583.5 345.5 583.5 345.5H666C666 345.5 662.152 350.334 662 354C661.834 358.022 666 363.5 666 363.5H583.5Z" fill="#F47601"/>
<path fill-rule="evenodd" clip-rule="evenodd" d="M578.5 354C578.5 360 583.5 363.5 583.5 363.5H666C666 363.5 661.834 358.022 662 354C662.152 350.334 666 345.5 666 345.5H583.5C583.5 345.5 578.5 348 578.5 354ZM585.5 356V354H655.5V356H585.5Z" fill="white"/>
<path fill-rule="evenodd" clip-rule="evenodd" d="M578.5 400.5C579.274 410.449 591.5 422.5 591.5 422.5H662C662 422.5 650.725 410.26 650 400.5C649.158 389.171 662 374 662 374C662 374 619.032 374 591.5 374C581.864 380.327 577.606 389.008 578.5 400.5ZM611.5 387.5V408H606.25H603C603 408 597.132 404.343 596 400.5C594.463 395.282 601 387.5 601 387.5H606.25H611.5Z" fill="#012136"/>
<path d="M658.5 400.5C657.557 388.834 672.5 374 672.5 374H662C662 374 649.158 389.171 650 400.5C650.725 410.26 662 422.5 662 422.5H672.5C672.5 422.5 659.321 410.65 658.5 400.5Z" fill="white"/>
<path d="M686 382V374H672.5C672.5 374 657.557 388.834 658.5 400.5C659.321 410.65 672.5 422.5 672.5 422.5H686V416.5C686 416.5 676.464 407.854 676 400.5C675.483 392.304 686 382 686 382Z" fill="#EF7001"/>
<path d="M611.5 408V387.5H606.25C606.25 387.5 602.146 395.337 603 400.5C603.521 403.649 606.25 408 606.25 408H611.5Z" fill="#EB6C01"/>
<path d="M596 400.5C597.132 404.343 603 408 603 408H606.25C606.25 408 603.521 403.649 603 400.5C602.146 395.337 606.25 387.5 606.25 387.5H601C601 387.5 594.463 395.282 596 400.5Z" fill="white"/>
<path d="M686 422.5H672.5H662H591.5H578.5C578.5 422.5 565 426.5 565 438.5C565 450.5 578.5 455 578.5 455H686V449C686 447.067 684.433 445.5 682.5 445.5V445.5H580.5C580.5 445.5 575.5 444 575.5 438.5C575.5 433 578.5 432 578.5 432H682.5V432C684.433 432 686 430.433 686 428.5V422.5Z" fill="#012136"/>
<path d="M583 438V440H674.5V437L583 438Z" fill="#012136"/>
<path fill-rule="evenodd" clip-rule="evenodd" d="M575.5 438.5C575.5 444 580.5 445.5 580.5 445.5H682.5V432H578.5C578.5 432 575.5 433 575.5 438.5ZM583 440V438L674.5 437V440H583Z" fill="white"/>
<path fill-rule="evenodd" clip-rule="evenodd" d="M332.5 540V333C272.122 303.788 237.543 291.892 172 294.5V504.182C285.862 499.999 302.905 514.496 332.5 540ZM301.378 352.576C302.988 353.448 304 355.139 304 356.97V357.573C304 361.369 299.931 363.78 296.581 361.993C259.891 342.425 235.842 333.675 194.161 330.345C191.54 330.136 189.5 327.959 189.5 325.33V323.316C189.5 320.434 191.94 318.146 194.814 318.363C238.364 321.651 262.412 331.478 301.378 352.576ZM304 384.932C304 383.114 303.031 381.421 301.465 380.496C262.308 357.374 237.997 348.017 195.641 345.772C192.295 345.594 189.5 348.282 189.5 351.632V351.632C189.5 354.677 191.823 357.221 194.85 357.552C235.747 362.021 259.792 370.609 296.406 389.527C299.86 391.311 304 388.82 304 384.932V384.932ZM189.5 380.727C189.5 376.33 193.311 372.895 197.675 373.434C235.831 378.145 260.231 386.457 300.382 406.211C302.597 407.3 304 409.56 304 412.028V412.028C304 416.849 298.924 419.989 294.579 417.9C256.815 399.746 232.794 392.001 196.251 388.155C192.438 387.753 189.5 384.561 189.5 380.727V380.727ZM304 439.063C304 436.564 302.611 434.263 300.397 433.104C259.488 411.69 234.896 402.746 195.616 400.751C192.278 400.582 189.5 403.267 189.5 406.609V406.609C189.5 409.664 191.837 412.212 194.875 412.538C234.363 416.771 258.237 425.828 293.948 445.014C298.473 447.445 304 444.199 304 439.063V439.063ZM189.5 432.775C189.5 428.779 192.791 425.548 196.785 425.716C238.024 427.455 262.036 437.692 300.461 459.941C302.652 461.21 304 463.556 304 466.088V466.088C304 471.696 297.814 475.101 293.034 472.17C258.921 451.25 235.59 440.763 196.738 440.027C192.761 439.951 189.5 436.753 189.5 432.775V432.775ZM304 495.467C304 493.626 303.024 491.911 301.445 490.964C262.453 467.583 238.646 455.926 195.118 455.053C192.022 454.991 189.5 457.509 189.5 460.606V460.606C189.5 463.618 191.891 466.087 194.899 466.263C235.131 468.619 259.045 479.218 296.138 500.049C299.65 502.021 304 499.495 304 495.467V495.467Z" fill="#F37402"/>
<path d="M301.378 352.576C302.988 353.448 304 355.139 304 356.97V357.573C304 361.369 299.931 363.78 296.581 361.993C259.891 342.425 235.842 333.675 194.161 330.345C191.54 330.136 189.5 327.959 189.5 325.33V323.316C189.5 320.434 191.94 318.146 194.814 318.363C238.364 321.651 262.412 331.478 301.378 352.576Z" fill="#FFA149"/>
<path d="M189.5 351.632C189.5 348.282 192.295 345.594 195.641 345.772C237.997 348.017 262.308 357.374 301.465 380.496C303.031 381.421 304 383.114 304 384.932V384.932C304 388.82 299.86 391.311 296.406 389.527C259.792 370.609 235.747 362.021 194.85 357.552C191.823 357.221 189.5 354.677 189.5 351.632V351.632Z" fill="#FFA149"/>
<path d="M189.5 380.727C189.5 376.33 193.311 372.895 197.675 373.434C235.831 378.145 260.231 386.457 300.382 406.211C302.597 407.3 304 409.56 304 412.028V412.028C304 416.849 298.924 419.989 294.579 417.9C256.815 399.746 232.794 392.001 196.251 388.155C192.438 387.753 189.5 384.561 189.5 380.727V380.727Z" fill="#FFA149"/>
<path d="M189.5 406.609C189.5 403.267 192.278 400.582 195.616 400.751C234.896 402.746 259.488 411.69 300.397 433.104C302.611 434.263 304 436.564 304 439.063V439.063C304 444.199 298.473 447.445 293.948 445.014C258.237 425.828 234.363 416.771 194.875 412.538C191.837 412.212 189.5 409.664 189.5 406.609V406.609Z" fill="#FFA149"/>
<path d="M189.5 432.775C189.5 428.779 192.791 425.548 196.785 425.716C238.024 427.455 262.036 437.692 300.461 459.941C302.652 461.21 304 463.556 304 466.088V466.088C304 471.696 297.814 475.101 293.034 472.17C258.921 451.25 235.59 440.763 196.738 440.027C192.761 439.951 189.5 436.753 189.5 432.775V432.775Z" fill="#FFA149"/>
<path d="M189.5 460.606C189.5 457.509 192.022 454.991 195.118 455.053C238.646 455.926 262.453 467.583 301.445 490.964C303.024 491.911 304 493.626 304 495.467V495.467C304 499.495 299.65 502.021 296.138 500.049C259.045 479.218 235.131 468.619 194.899 466.263C191.891 466.087 189.5 463.618 189.5 460.606V460.606Z" fill="#FFA149"/>
</svg>
