<svg width="711" height="488" viewBox="0 0 711 488" fill="none" xmlns="http://www.w3.org/2000/svg">
<path d="M182 384L327.499 440L332.999 429L199.651 377.5L188 373C181.222 375.69 179.968 378.112 182 384Z" fill="white"/>
<path d="M348.999 419L336.999 410L242 372.442L222.5 364.733L208 359C203.658 361.501 202.744 363.559 204 368.5L207 369.68L339.999 422L348.999 419Z" fill="#E0E0DE"/>
<path d="M336.999 410L247 347L245.427 355L242 372.442L336.999 410Z" fill="white"/>
<path d="M463.499 347L364.999 419L374.499 422L468.999 373L463.499 347Z" fill="white"/>
<path d="M503.499 359L468.999 373L374.499 422L506.999 368.5C509.703 363.29 508.64 361.32 503.499 359Z" fill="#E0E0DE"/>
<path d="M381.499 429L385.999 440L529.5 384C533.43 381.699 533.028 379.652 522 373L514.473 376L381.499 429Z" fill="white"/>
<path d="M390.499 447L529.5 392C531.929 386.312 533.781 382.607 529.5 384L385.999 440L390.499 447Z" fill="#FEEECC"/>
<path d="M368.499 448C369.046 441.52 363.996 435.782 357.499 435.5C350.739 435.207 344.931 441.257 345.499 448C345.785 454.351 351.148 459.267 357.499 459C363.851 458.733 367.953 454.48 368.499 448Z" fill="white"/>
<path d="M275.499 266.5H285.499L297.999 313L275.499 266.5Z" fill="white"/>
<path d="M300.999 213.5L290.499 254.5H281.499L300.999 213.5Z" fill="white"/>
<path d="M275.499 234.5L222.5 263.5L163 402H157.5L213.5 259.5L275.499 223V234.5Z" fill="white"/>
<path d="M357.499 480C374.999 480 386.905 466.542 390.499 447L385.999 440C385.999 440 390.499 475.5 357.499 476C324.499 476.5 327.499 440 327.499 440L182 384C179.609 386.051 179.746 387.864 182 392L324.499 447C327.499 470 339.999 480 357.499 480Z" fill="#FEEECC"/>
<path d="M506.999 368.5L374.499 422L381.499 429L514.473 376C517.284 368.99 516.479 366.757 506.999 368.5Z" fill="#EBEBEB"/>
<path fill-rule="evenodd" clip-rule="evenodd" d="M364.999 419H348.999L339.999 422L332.999 429L327.499 440C327.499 440 324.499 476.5 357.499 476C390.499 475.5 385.999 440 385.999 440L381.499 429L374.499 422L364.999 419ZM357.499 435.5C363.996 435.782 369.046 441.52 368.499 448C367.953 454.48 363.851 458.733 357.499 459C351.148 459.267 345.785 454.351 345.499 448C344.931 441.257 350.739 435.207 357.499 435.5Z" fill="#000D11"/>
<path d="M522 402L529.5 392L390.499 447C386.905 466.542 374.999 480 357.499 480C339.999 480 327.499 470 324.499 447L182 392L190.363 402L219.341 436.647C225.012 443.428 232.379 448.584 240.692 451.59L339.999 487.5H374.499L470.454 451.35C478.037 448.493 484.813 443.835 490.196 437.778L522 402Z" fill="#FF8B18"/>
<path d="M332.999 429L339.999 422L207 369.68C198.101 368.614 196.475 370.315 199.651 377.5L332.999 429Z" fill="#EBEBEB"/>
<path d="M275.499 223V234.5L278.98 231L275.499 223Z" fill="white"/>
<path d="M157.5 402L213.5 259.5L275.499 223L278.98 231L297.999 194.597L201.5 247L140 402H157.5Z" fill="#000D11"/>
<path d="M275.499 234.5L222.5 263.5L163 402H190.363L182 392C179.746 387.864 179.609 386.051 182 384C179.968 378.112 181.222 375.69 188 373L199.651 377.5C196.475 370.315 198.101 368.614 207 369.68L204 368.5C202.744 363.559 203.658 361.501 208 359L222.5 364.733L239 300L245.427 355L247 347L336.999 410L261.999 263.5L278.98 231L275.499 234.5Z" fill="#002E3B"/>
<path d="M222.5 364.733L242 372.442L245.427 355L239 300L222.5 364.733Z" fill="#000D11"/>
<path fill-rule="evenodd" clip-rule="evenodd" d="M163 402H157.5H140C140 402 21.8341 401.899 8.99953 402C-3.83504 402.101 0.151332 422.102 8.99953 422C16.185 421.917 38.0791 421.969 46.054 421.991C47.8721 421.996 49.5429 422.989 50.4187 424.582L70.7551 461.583C79.5405 477.568 96.3332 487.5 114.573 487.5H339.999L240.692 451.59C232.379 448.584 225.012 443.428 219.341 436.647L190.363 402H163ZM82.5 431.25C82.5 428.627 84.6266 426.5 87.25 426.5H113.25C115.873 426.5 118 428.627 118 431.25V431.25C118 433.873 115.873 436 113.25 436H87.25C84.6266 436 82.5 433.873 82.5 431.25V431.25ZM141.5 443.5C138.739 443.5 136.5 441.261 136.5 438.5V436.5C136.5 433.739 138.739 431.5 141.5 431.5H177C179.761 431.5 182 433.739 182 436.5V438.5C182 441.261 179.761 443.5 177 443.5H141.5Z" fill="#000D11"/>
<path d="M82.5 431.25C82.5 428.627 84.6266 426.5 87.25 426.5H113.25C115.873 426.5 118 428.627 118 431.25V431.25C118 433.873 115.873 436 113.25 436H87.25C84.6266 436 82.5 433.873 82.5 431.25V431.25Z" fill="#FF8B18"/>
<path d="M141.5 431.5C138.739 431.5 136.5 433.739 136.5 436.5V438.5C136.5 441.261 138.739 443.5 141.5 443.5H177C179.761 443.5 182 441.261 182 438.5V436.5C182 433.739 179.761 431.5 177 431.5H141.5Z" fill="#FF8B18"/>
<path d="M574.5 431.5C577.261 431.5 579.5 433.739 579.5 436.5V438.5C579.5 441.261 577.261 443.5 574.5 443.5H540C537.239 443.5 535 441.261 535 438.5V436.5C535 433.739 537.239 431.5 540 431.5H574.5Z" fill="#FF8B18"/>
<path fill-rule="evenodd" clip-rule="evenodd" d="M597.308 487.5C615.345 487.5 631.983 477.786 640.85 462.08L661.5 425.5H703C712.678 415.235 712.257 410.136 703 402H574H522L490.196 437.778C484.813 443.835 478.037 448.493 470.454 451.35L374.499 487.5H597.308ZM596 431.25C596 428.627 598.127 426.5 600.75 426.5H635.25C637.873 426.5 640 428.627 640 431.25V431.25C640 433.873 637.873 436 635.25 436H600.75C598.127 436 596 433.873 596 431.25V431.25ZM574.5 443.5C577.261 443.5 579.5 441.261 579.5 438.5V436.5C579.5 433.739 577.261 431.5 574.5 431.5H540C537.239 431.5 535 433.739 535 436.5V438.5C535 441.261 537.239 443.5 540 443.5H574.5Z" fill="#000D11"/>
<path d="M640 431.25C640 428.627 637.873 426.5 635.25 426.5H600.75C598.127 426.5 596 428.627 596 431.25V431.25C596 433.873 598.127 436 600.75 436H635.25C637.873 436 640 433.873 640 431.25V431.25Z" fill="#FF8B18"/>
<path d="M373.055 239.435L357.499 225.5V257C365 257 373.055 239.435 373.055 239.435Z" fill="#C02C02"/>
<path d="M357.499 225.5L339.999 239.435C342.638 247.569 349.5 257 357.499 257V225.5Z" fill="#FF8B18"/>
<path d="M330.5 247C334.572 257.305 337.597 262.533 345.499 270L357.499 273L368.499 270C377.021 261.446 380.298 256.464 381.499 247L373.055 239.435C373.055 239.435 365 257 357.499 257C349.5 257 342.638 247.569 339.999 239.435L330.5 247Z" fill="#000D11"/>
<path d="M336.999 319.319C342.575 341.44 349.278 364.656 357.499 392V273L345.499 270L336.999 319.319Z" fill="#FF8B18"/>
<path d="M357.499 392C364.686 364.575 370.515 341.277 375.455 319.319L368.499 270L357.499 273V392Z" fill="#C02C02"/>
<path d="M397.5 187L357.499 220.5L315 187C320.096 240.466 326.579 277.978 336.999 319.319L345.499 270C337.597 262.533 334.572 257.305 330.5 247L339.999 239.435L357.499 225.5L373.055 239.435L381.499 247C380.298 256.464 377.021 261.446 368.499 270L375.455 319.319C384.994 276.913 391.217 239.501 397.5 187Z" fill="white"/>
<path d="M304.5 58.5V82C308.589 96.3618 309.734 104.542 308.499 119.5L300.999 113C297.26 116.201 296.806 118.696 297.999 124C298.71 129.613 300.359 131.858 304.5 135L312.5 137C309.588 138.861 321.5 194.597 357.499 192.5C393.499 190.403 394.554 167.729 400 135C403.954 135.39 405.966 135.156 409 133.5C412.009 129.961 413.083 127.876 414 124C413.659 118.11 413.085 115.773 411.5 113L404 119.5C403.284 104.936 402.57 96.741 400 82C386.936 91.8039 378 97 357.499 97C336.999 97 328.061 93.8635 315 82C311.172 76.3834 309.054 72.4311 309.057 67C309.058 64.9374 309.365 62.6614 310 60L304.5 58.5Z" fill="white"/>
<path d="M332.5 24.5L346 27L315 41.5L349.5 56L418 33.5L355.5 13L332.5 24.5Z" fill="#002E3B"/>
<path d="M346 60L349.5 56L315 41.5L346 27L332.5 24.5L293.5 41.5L346 60Z" fill="#FEFFFF"/>
<path fill-rule="evenodd" clip-rule="evenodd" d="M308.499 174.5L315 187L357.499 220.5L397.5 187L404 174.5L411.5 150.5C411.5 150.5 427 143.5 428.5 127C430 110.5 418 100 418 100L421 49.5L443 41.5V35.5L355.5 0L269.5 35.5V41.5L290.499 49.5L293.5 100C284.671 107.294 283 114 283 127C283 140 291.174 146.64 300.999 150.5L308.499 174.5ZM304.5 82V58.5L310 60L349.5 76L309.057 67C309.054 72.4311 311.172 76.3834 315 82C328.061 93.8635 336.999 97 357.499 97C378 97 386.936 91.8039 400 82C402.57 96.741 403.284 104.936 404 119.5L411.5 113C413.085 115.773 413.659 118.11 414 124C413.083 127.876 412.009 129.961 409 133.5C405.966 135.156 403.954 135.39 400 135C394.554 167.729 393.499 190.403 357.499 192.5C321.5 194.597 309.588 138.861 312.5 137L304.5 135C300.359 131.858 298.71 129.613 297.999 124C296.806 118.696 297.26 116.201 300.999 113L308.499 119.5C309.734 104.542 308.589 96.3618 304.5 82ZM349.5 56L346 60L293.5 41.5L332.5 24.5L355.5 13L418 33.5L349.5 56Z" fill="#000D11"/>
<path d="M431.5 312.5H425V321H418V326H425V335.5H431.5V326H440V321H431.5V312.5Z" fill="white"/>
<path fill-rule="evenodd" clip-rule="evenodd" d="M404.73 307C406.071 327.669 412.079 337.881 428 352C446.537 338.599 452.005 327.915 452.877 307H404.73ZM425 312.5H431.5V321H440V326H431.5V335.5H425V326H418V321H425V312.5Z" fill="#C02C02"/>
<path d="M453 302H404.5C404.55 303.734 404.626 305.398 404.73 307H452.877C452.944 305.395 452.983 303.731 453 302Z" fill="white"/>
<path d="M349.5 76L310 60C309.365 62.6614 309.058 64.9374 309.057 67L349.5 76Z" fill="#002E3B"/>
<path fill-rule="evenodd" clip-rule="evenodd" d="M261.999 263.5L336.999 410L348.999 419H364.999L463.499 347L468.999 373L503.499 359C508.64 361.32 509.703 363.29 506.999 368.5C516.479 366.757 517.284 368.99 514.473 376L522 373C533.028 379.652 533.43 381.699 529.5 384C533.781 382.607 531.929 386.312 529.5 392L522 402H574L510 247L418 194.597L404 174.5L397.5 187C391.217 239.501 384.994 276.913 375.455 319.319C370.515 341.277 364.686 364.575 357.499 392C349.278 364.656 342.575 341.44 336.999 319.319C326.579 277.978 320.096 240.466 315 187L308.499 174.5L297.999 194.597L278.98 231L261.999 263.5ZM290.499 254.5L300.999 213.5L281.499 254.5H290.499ZM285.499 266.5H275.499L297.999 313L285.499 266.5ZM404.5 302H453C452.983 303.731 452.944 305.395 452.877 307C452.005 327.915 446.537 338.599 428 352C412.079 337.881 406.071 327.669 404.73 307C404.626 305.398 404.55 303.734 404.5 302Z" fill="#000D11"/>
</svg>
