<svg width="827" height="599" viewBox="0 0 827 599" fill="none" xmlns="http://www.w3.org/2000/svg">
<path d="M644.5 153.5C635.001 153.879 632.446 155.382 627.5 163.5V219H639V172C641.968 167.578 644.134 165.368 650 162.5L644.5 153.5Z" fill="#D9D9D9"/>
<path d="M639 172V219H661V164.5C655.961 155.672 654.587 154.756 644.5 153.5L650 162.5C644.134 165.368 641.968 167.578 639 172Z" fill="#FF8B18"/>
<path d="M412.501 309V234.5C374.404 194.721 349.473 175.911 289.001 158V125.5L412.501 171V152L239.501 95L228.5 109C245.033 149.898 247.499 180 346.999 201.5C379.635 215.523 383.5 254 404.968 265.5C412.501 289.066 412.501 309 412.501 309Z" fill="black"/>
<path d="M409.5 292L412.501 309C412.501 309 412.501 289.066 404.968 265.5C407.378 275.743 408.693 281.491 409.5 292Z" fill="black"/>
<path d="M289.001 158C349.473 175.911 374.404 194.721 412.501 234.5V218.5C371.198 182.761 347.11 164.303 297 143.5V136.5L294 135V131.5L412.501 174V171L289.001 125.5V158Z" fill="white"/>
<path d="M297 143.5C347.11 164.303 371.198 182.761 412.501 218.5V208.5L403.5 202.5L412.501 205.5V200L401 193.5L412.501 197V192.5L377 176L412.501 189.5V185L342 156.5L412.501 182V178L297 136.5V143.5Z" fill="#FF8B18"/>
<path d="M294 135L297 136.5L412.501 178V174L294 131.5V135Z" fill="black"/>
<path d="M412.501 182L342 156.5L412.501 185V182Z" fill="black"/>
<path d="M412.501 189.5L377 176L412.501 192.5V189.5Z" fill="black"/>
<path d="M412.501 197L401 193.5L412.501 200V197Z" fill="black"/>
<path d="M412.501 205.5L403.5 202.5L412.501 208.5V205.5Z" fill="black"/>
<path d="M412 308.8V234.3C450.097 194.521 475.028 175.711 535.5 157.8V125.3L412 170.8V151.8L585 94.8L596.5 110.5C579.967 151.398 580 183 480.5 204.5C447.864 218.523 443.5 255.3 422.032 266.8C414.499 290.366 412 308.8 412 308.8Z" fill="black"/>
<path d="M415.001 291.8L412 308.8C412 308.8 414.499 290.366 422.032 266.8C419.622 277.043 415.808 281.291 415.001 291.8Z" fill="black"/>
<path d="M535.5 157.8C475.028 175.711 450.097 194.521 412 234.3V218.3C453.303 182.561 477.391 164.103 527.501 143.3V136.3L530.501 134.8V131.3L412 173.8V170.8L535.5 125.3V157.8Z" fill="white"/>
<path d="M527.501 143.3C477.391 164.103 453.303 182.561 412 218.3V208.3L421.001 202.3L412 205.3V199.8L423.501 193.3L412 196.8V192.3L447.501 175.8L412 189.3V184.8L482.501 156.3L412 181.8V177.8L527.501 136.3V143.3Z" fill="#FF8B18"/>
<path d="M530.501 134.8L527.501 136.3L412 177.8V173.8L530.501 131.3V134.8Z" fill="black"/>
<path d="M412 181.8L482.501 156.3L412 184.8V181.8Z" fill="black"/>
<path d="M412 189.3L447.501 175.8L412 192.3V189.3Z" fill="black"/>
<path d="M412 196.8L423.501 193.3L412 199.8V196.8Z" fill="black"/>
<path d="M412 205.3L421.001 202.3L412 208.3V205.3Z" fill="black"/>
<path d="M207 365.5L209.218 417.625C209.735 429.773 212.463 441.725 217.269 452.894L249.041 526.744C259.575 551.229 279.335 570.909 304.648 579.257C385.031 605.765 442.072 605.07 521.787 578.017C544.688 570.246 563.106 553.156 574.187 531.661L610.128 461.94C618.86 445 622.57 425.917 620.821 406.939L617 365.5C582.757 418.131 558.255 442.054 492 464.5C489.259 494.904 485.76 504.829 475.5 508C462.996 512.054 457.574 511.615 447.5 504.5C435.076 527.528 428.093 541.144 413 557.5C393.19 536.791 375.5 502.5 375.5 504C375.5 505.5 359.089 512.92 349.5 510C339.104 501.272 339.653 492.017 328.5 479L330 466C270.897 444.976 243.077 422.906 207 365.5Z" fill="#002E3B"/>
<path d="M381 514.5C394.035 512.842 399.5 506 410 499V478H403C394.846 490.356 388.893 496.1 375.5 504L381 514.5Z" fill="#9B3904"/>
<path d="M448 506C434.848 497.502 429.106 490.945 420 478H413.5V499H418.5C427.275 505.655 432.238 509.332 443.333 513L448 506Z" fill="#9B3904"/>
<path d="M429 521V519L416 506L415 508L426.5 520L429 521Z" fill="#9B3904"/>
<path d="M395 520V516.5L406 505H409V508L395 520Z" fill="#9B3904"/>
<path fill-rule="evenodd" clip-rule="evenodd" d="M413.5 502L415 555.5C428.386 540.245 434.406 530.832 443.333 513C432.238 509.332 427.275 505.655 418.5 499H413.5V478H410V499C399.5 506 394.035 512.842 381 514.5C390.933 532.537 397.249 541.009 410 553V506L413.5 502ZM429 519V521L426.5 520L415 508L416 506L429 519ZM395 516.5V520L409 508V505H406L395 516.5Z" fill="#FF8B18"/>
<path d="M415 555.5L413.5 502L410 506V553L415 555.5Z" fill="white"/>
<path d="M412 462.5C406.422 461.719 403.848 456.13 404 450.5C404.198 443.152 411.324 436.91 418.5 438.5C424.178 439.758 429.221 445.401 428.301 450.711C428.776 449.21 429.024 447.628 429 446C428.86 436.465 420.519 428.939 411 429.5C402.04 430.028 395.108 437.025 395 446C394.901 454.203 400.027 460.57 408 462.5C414.95 464.182 422.313 460.704 426.206 454.99C422.824 459.454 416.72 463.161 412 462.5Z" fill="white"/>
<path d="M404 450.5C403.848 456.13 406.422 461.719 412 462.5C416.72 463.161 422.824 459.454 426.206 454.99C427.105 453.671 427.819 452.233 428.301 450.711C429.221 445.401 424.178 439.758 418.5 438.5C411.324 436.91 404.198 443.152 404 450.5Z" fill="#FF8B18"/>
<path fill-rule="evenodd" clip-rule="evenodd" d="M420 478C429.106 490.945 434.848 497.502 448 506C457.875 513.778 464.108 514.306 476 511C489.505 499.812 492.254 492.346 493 478C493.334 460.044 491.579 454.289 485 451.5C492.348 437.617 493.979 429.615 493 415C492.678 396.875 491.031 389.049 482.5 384C447.729 388.649 439.118 399.213 423 417.5C413.758 413.684 408.715 413.589 400 417.5C380.596 395.861 367.758 388.092 340.5 384C335.875 383.442 333.236 390.427 328.5 415C328.385 433.183 330.874 440.613 337.5 451.5C331.364 454.484 329.31 460.031 328.5 478C333.978 496.757 338.356 504.643 350 511C364.311 512.005 369.608 510.229 375.5 504C388.893 496.1 394.846 490.356 403 478H410H413.5H420ZM350 400.5C367.108 407.323 375.075 413.523 389 425C387.346 427.473 385.927 429.793 384.747 432C383.683 433.99 382.814 435.888 382.144 437.721C381.089 440.605 380.525 443.329 380.468 446C380.446 447.006 380.496 448.004 380.618 449C381.085 452.802 382.606 456.315 385.222 460.28C385.906 461.318 386.665 462.387 387.5 463.5C389.066 465.588 390.897 468.19 393 470.5C380.475 485.605 371.677 492.459 356 499.922C354.561 500.607 353.063 501.298 351.5 502C343.789 480.762 343.08 469.267 357 450.5C344.665 433.164 344.409 421.925 350 400.5ZM473.5 400.5C455.741 406.456 447.394 412.1 434.5 425C436.288 427.853 437.752 430.5 438.902 433C439.616 434.552 440.209 436.048 440.684 437.5C441.774 440.839 442.238 443.95 442.103 447C442.049 448.243 441.895 449.477 441.643 450.711C441.09 453.428 440.065 456.151 438.59 459C437.841 460.445 436.977 461.923 436 463.45C434.572 465.68 432.902 468.014 431 470.5C445.834 486.366 455.12 492.745 472.5 502C478.836 474.435 478.969 461.983 467 450.5C477.631 438.363 478.142 426.581 473.5 400.5ZM395 446C395.108 437.025 402.04 430.028 411 429.5C420.519 428.939 428.86 436.465 429 446C429.024 447.628 428.776 449.21 428.301 450.711C428.166 451.486 427.905 452.254 427.5 453C427.135 453.672 426.7 454.339 426.206 454.99C422.313 460.704 414.95 464.182 408 462.5C400.027 460.57 394.901 454.203 395 446Z" fill="#002E3B"/>
<path d="M389 425C375.075 413.523 367.108 407.323 350 400.5C344.409 421.925 344.665 433.164 357 450.5C351.549 431.848 349.959 422.245 355.5 410C368.176 412.385 375.668 417.009 389 425Z" fill="white"/>
<path d="M357 450.5C343.08 469.267 343.789 480.762 351.5 502C353.063 501.298 354.561 500.607 356 499.922C350.778 486.96 352.098 474.896 357 450.5Z" fill="white"/>
<path d="M384 461C376.508 465.883 372.317 466.551 366.5 475C375.476 473.523 379.603 468.945 387.5 463.5C386.665 462.387 385.906 461.318 385.222 460.28L384 461Z" fill="#002E3B"/>
<path d="M380.468 446H365C363.499 446.807 363.016 447.439 363 449C363.12 450.743 363.63 451.207 365 451.5L380.618 449C380.496 448.004 380.446 447.006 380.468 446Z" fill="#002E3B"/>
<path d="M384.747 432L366 421C363.32 419.708 362.072 420.393 360 422.5L382.144 437.721C382.814 435.888 383.683 433.99 384.747 432Z" fill="#002E3B"/>
<path d="M355.5 410C349.959 422.245 351.549 431.848 357 450.5C352.098 474.896 350.778 486.96 356 499.922C371.677 492.459 380.475 485.605 393 470.5C390.897 468.19 389.066 465.588 387.5 463.5C379.603 468.945 375.476 473.523 366.5 475C372.317 466.551 376.508 465.883 384 461L385.222 460.28C382.606 456.315 381.085 452.802 380.618 449L365 451.5C363.63 451.207 363.12 450.743 363 449C363.016 447.439 363.499 446.807 365 446H380.468C380.525 443.329 381.089 440.605 382.144 437.721L360 422.5C362.072 420.393 363.32 419.708 366 421L384.747 432C385.927 429.793 387.346 427.473 389 425C375.668 417.009 368.176 412.385 355.5 410Z" fill="#FF8B18"/>
<path d="M440.684 437.5L464 422.5C464 422.5 465 420 462.5 420C460 420 438.902 433 438.902 433C439.616 434.552 440.209 436.048 440.684 437.5Z" fill="#002E3B"/>
<path d="M441.643 450.711H459C461.187 450.059 461.5 448.5 461 447.5C460.5 446.5 449.387 447.106 442.103 447C442.049 448.243 441.895 449.477 441.643 450.711Z" fill="#002E3B"/>
<path d="M459 473.5L438.59 459C437.841 460.445 436.977 461.923 436 463.45C444.6 469.925 449.726 471.529 459 473.5Z" fill="#002E3B"/>
<path d="M473.5 400.5C455.741 406.456 447.394 412.1 434.5 425C444.758 418.484 450.544 414.926 462.5 413C467.377 427.578 467.563 435.806 467 450.5C471.681 431.116 473.003 420.163 473.5 400.5Z" fill="white"/>
<path d="M473.5 400.5C478.142 426.581 477.631 438.363 467 450.5C471.681 431.116 473.003 420.163 473.5 400.5Z" fill="#FF8B18"/>
<path d="M472.5 502C478.836 474.435 478.969 461.983 467 450.5C467.563 435.806 467.377 427.578 462.5 413C450.544 414.926 444.758 418.484 434.5 425C436.288 427.853 437.752 430.5 438.902 433C438.902 433 460 420 462.5 420C465 420 464 422.5 464 422.5L440.684 437.5C441.774 440.839 442.238 443.95 442.103 447C449.387 447.106 460.5 446.5 461 447.5C461.5 448.5 461.187 450.059 459 450.711H441.643C441.09 453.428 440.065 456.151 438.59 459L459 473.5C449.726 471.529 444.6 469.925 436 463.45C434.572 465.68 432.902 468.014 431 470.5C445.834 486.366 455.12 492.745 472.5 502Z" fill="#FF8B18"/>
<path d="M326.5 450C217.501 412.5 176 314.5 235 199L229.5 192.5C131.5 321.5 241.5 445 329.5 465C329.5 465 331.942 454.332 337.501 451.5L326.5 450Z" fill="white"/>
<path d="M409.5 292.5C400.853 169.428 259.129 197.091 229.5 105.5C226.512 104.863 213.361 132.565 220.5 156C226.251 165.293 232.282 172.431 238.559 178C241.325 180.454 244.139 182.604 246.997 184.5C231.23 168.301 224.226 133.236 227.5 132C272 209.5 388.5 184.5 409.5 292.5Z" fill="white"/>
<path d="M246.997 184.5C293.573 215.387 352.031 178.812 409.5 292.5C388.5 184.5 272 209.5 227.5 132C224.226 133.236 231.23 168.301 246.997 184.5Z" fill="#FF8B18"/>
<path d="M271 379L279 397.5C277.794 402.083 275.979 403.896 271 406C265.839 404.524 263.726 402.823 262 397.5L271 379Z" fill="#002E3B"/>
<path d="M305 391.5L313.5 411.5C312.121 416.167 310.449 418.068 305 419.5C300.235 418.224 298.282 416.586 296.5 411.5L305 391.5Z" fill="#002E3B"/>
<path fill-rule="evenodd" clip-rule="evenodd" d="M235 199C176 314.5 217.501 412.5 326.5 450L337.501 451.5C330.736 441.023 328.119 433.709 328.5 414.5C332.645 392.629 334.951 386.143 339 384C368.784 386.958 380.752 396.648 400 417.5C404.677 415.513 407.39 414.75 412.5 414.5V407C394.345 389.836 388.905 378.142 381 356.5C381 356.5 350 385.5 295.5 374C241 362.5 198.74 280.226 250.5 209.5L235 199ZM279 397.5L271 379L262 397.5C263.726 402.823 265.839 404.524 271 406C275.979 403.896 277.794 402.083 279 397.5ZM313.5 411.5L305 391.5L296.5 411.5C298.282 416.586 300.235 418.224 305 419.5C310.449 418.068 312.121 416.167 313.5 411.5Z" fill="#FF8B18"/>
<path d="M412.5 376V309.5C402.777 311.283 398.981 315.858 394.5 329C397.848 355.432 402.835 363.427 412.5 376Z" fill="white"/>
<path d="M229.5 192.5L235 199L250.5 209.5C198.74 280.226 241 362.5 295.5 374C350 385.5 381 356.5 381 356.5C388.905 378.142 394.345 389.836 412.5 407V376C402.835 363.427 397.848 355.432 394.5 329C398.981 315.858 402.777 311.283 412.5 309.5L409.5 292.5C352.031 178.812 293.573 215.387 246.997 184.5C244.139 182.604 241.325 180.454 238.559 178L229.5 192.5Z" fill="black"/>
<path d="M497.999 451.511C606.999 414.011 648.499 316.011 589.5 200.511L595 194.011C693 323.011 581 446 493 466C493 466 491.058 454.343 485.5 451.511H497.999Z" fill="white"/>
<path d="M415 294.011C423.647 170.939 565.371 198.602 595 107.011C597.988 106.374 611.139 134.076 604 157.511C595.715 170.9 586.848 179.813 577.502 186.011C593.27 169.812 600.274 134.747 597 133.511C552.5 211.011 436 186.011 415 294.011Z" fill="white"/>
<path d="M577.502 186.011C530.927 216.898 472.469 180.323 415 294.011C436 186.011 552.5 211.011 597 133.511C600.274 134.747 593.27 169.812 577.502 186.011Z" fill="#FF8B18"/>
<path d="M553.5 380.511L545.5 399.011C546.706 403.594 548.521 405.407 553.5 407.511C558.661 406.035 560.774 404.334 562.5 399.011L553.5 380.511Z" fill="#002E3B"/>
<path d="M519.5 393.011L511 413.011C512.379 417.678 514.051 419.579 519.5 421.011C524.265 419.735 526.218 418.097 528 413.011L519.5 393.011Z" fill="#002E3B"/>
<path fill-rule="evenodd" clip-rule="evenodd" d="M589.5 200.511C648.499 316.011 606.999 414.011 497.999 451.511H485.5C493.905 433.636 492.156 423.36 493 416C492.22 400.883 492.357 391.953 485.5 385.511C455.716 388.468 443.748 398.159 424.5 419.011C419.823 417.023 417.465 414.75 412.355 414.5V406.5C430.51 389.336 435.595 379.653 443.5 358.011C443.5 358.011 474.5 387.011 529 375.511C583.5 364.011 625.76 281.737 574 211.011L589.5 200.511ZM545.5 399.011L553.5 380.511L562.5 399.011C560.774 404.334 558.661 406.035 553.5 407.511C548.521 405.407 546.706 403.594 545.5 399.011ZM511 413.011L519.5 393.011L528 413.011C526.218 418.097 524.265 419.735 519.5 421.011C514.051 419.579 512.379 417.678 511 413.011Z" fill="#FF8B18"/>
<path d="M412 377.511L412.355 309C422.078 310.783 425.874 315.358 430.355 328.5C427.007 354.932 421.665 364.938 412 377.511Z" fill="#FF8B18"/>
<path d="M362 254.5C398.5 348.5 238.154 342.77 284.5 248C278.101 299.87 300.573 318.587 341 305.5C358.783 300.163 362 254.5 362 254.5Z" fill="#FF8B18"/>
<path d="M310.5 240.5C303.822 240.377 297.703 244.358 297 251C296.229 258.278 303.182 264.138 310.5 264C317.678 263.865 324.26 258.139 323.5 251C322.81 244.511 317.025 240.62 310.5 240.5Z" fill="white"/>
<path d="M303.5 270C307.043 282.119 311.704 285.606 323.5 287.5C335.388 284.591 338 272 342.5 270C347 268 349 272 349 272C353.229 284.498 344.136 299 323.5 299C302.987 299 296 278.5 296 278.5C296 278.5 298.488 265.939 303.5 270Z" fill="white"/>
<path d="M595 194.011L589.5 200.511L574 211.011C625.76 281.737 583.5 364.011 529 375.511C474.5 387.011 443.5 358.011 443.5 358.011C435.595 379.653 430.51 389.336 412.355 406.5L412 377.511C421.665 364.938 427.007 354.932 430.355 328.5C425.874 315.358 422.078 310.783 412.355 309L415 294.011C472.469 180.323 530.927 216.898 577.502 186.011L595 194.011Z" fill="black"/>
<path d="M543.566 254.247C581.714 347.59 421.292 344.682 465.963 249.111C460.478 301.086 483.276 319.405 523.466 305.608C541.153 299.96 543.566 254.247 543.566 254.247Z" fill="#FF8B18"/>
<path d="M491.312 240.689C484.633 240.684 478.585 244.771 477.998 251.425C477.356 258.716 484.411 264.452 491.725 264.185C498.9 263.923 505.379 258.083 504.494 250.958C503.69 244.482 497.837 240.694 491.312 240.689Z" fill="white"/>
<path d="M485.348 270.774C489.104 282.828 493.825 286.233 505.652 287.919C517.488 284.801 519.877 272.166 524.342 270.087C528.806 268.009 530.876 271.973 530.876 271.973C535.324 284.394 526.487 299.054 505.855 299.417C485.345 299.778 477.998 279.404 477.998 279.404C477.998 279.404 480.265 266.802 485.348 270.774Z" fill="white"/>
<path d="M298.086 218.669C296.899 217.719 295.186 217.814 294.111 218.889V218.889C292.945 220.055 292.945 221.945 294.111 223.111V223.111C295.186 224.186 296.899 224.281 298.086 223.331V223.331C299.58 222.136 299.58 219.864 298.086 218.669V218.669Z" fill="#874A0D"/>
<path d="M282.721 233.957C283.464 234.562 284.532 234.557 285.268 233.943V233.943C286.19 233.175 286.234 231.775 285.362 230.951L270.695 217.076C269.519 215.963 267.639 216.107 266.645 217.385V217.385C265.73 218.561 265.922 220.252 267.076 221.194L282.721 233.957Z" fill="#874A0D"/>
<path d="M270.714 243.828C272.195 244.717 272.566 246.701 271.505 248.065V248.065C270.638 249.18 269.089 249.501 267.85 248.822L252.571 240.456C250.748 239.457 250.333 237.019 251.724 235.474V235.474C252.755 234.327 254.454 234.073 255.777 234.866L270.714 243.828Z" fill="#FF8B18"/>
<path d="M264.629 265.903C265.098 264.339 264.133 262.707 262.536 262.365L248.738 259.408C246.465 258.921 244.265 260.496 243.994 262.805V262.805C243.727 265.074 245.437 267.094 247.719 267.206L261.814 267.893C263.098 267.956 264.26 267.135 264.629 265.903V265.903Z" fill="#FF8B18"/>
<path d="M247.411 282.5C245.018 282.5 243.118 284.514 243.259 286.903V286.903C243.393 289.175 245.327 290.917 247.6 290.814L261.581 290.178C263.732 290.08 265.382 288.234 265.239 286.086V286.086C265.105 284.068 263.429 282.5 261.406 282.5H247.411Z" fill="#FF8B18"/>
<path d="M266.875 300.933C268.387 300.396 270.066 301.037 270.834 302.445V302.445C271.736 304.1 271.054 306.173 269.345 306.967L254.463 313.889C252.521 314.793 250.211 314.02 249.203 312.13V312.13C248.043 309.955 249.088 307.258 251.411 306.432L266.875 300.933Z" fill="#FF8B18"/>
<path d="M275.518 316.209C276.156 315.748 276.924 315.5 277.712 315.5V315.5C279.367 315.5 280.828 316.594 281.304 318.179V318.179C281.727 319.589 281.293 321.124 280.189 322.098L268.316 332.574C266.471 334.202 263.665 334.062 261.991 332.26V332.26C260.136 330.262 260.45 327.092 262.659 325.496L275.518 316.209Z" fill="#FF8B18"/>
<path d="M291.602 326C293.025 326 294.28 326.933 294.689 328.296L294.886 328.953C295.271 330.237 295.011 331.629 294.188 332.687L283.75 346.108C282.516 347.693 280.219 347.952 278.664 346.68V346.68C277.177 345.463 276.917 343.288 278.077 341.755L289.033 327.278C289.642 326.473 290.593 326 291.602 326V326Z" fill="#FF8B18"/>
<path d="M309.236 334.472C308.533 333.067 306.883 332.419 305.412 332.97V332.97C304.522 333.304 303.836 334.033 303.556 334.942L298.5 351.375C298.183 352.406 298.334 353.524 298.913 354.434V354.434C300.216 356.482 303.109 356.73 304.742 354.934L305.694 353.886C306.223 353.305 306.6 352.601 306.791 351.838L310.105 338.579C310.36 337.56 310.242 336.483 309.772 335.544L309.236 334.472Z" fill="#FF8B18"/>
<path d="M326.913 336.913C325.133 335.133 322.176 335.391 320.732 337.454V337.454C320.256 338.135 320 338.946 320 339.777V355.799C320 357.188 320.655 358.509 321.751 359.362V359.362C323.355 360.61 325.624 360.626 327.228 359.378V359.378C328.342 358.511 328.979 357.167 328.942 355.756L328.545 340.274C328.516 339.135 328.051 338.051 327.245 337.245L326.913 336.913Z" fill="#FF8B18"/>
<path d="M343.09 331.805C341.063 331.069 338.812 332.015 337.919 333.977L337.739 334.375C337.264 335.42 337.196 336.606 337.551 337.698L342.174 351.953C342.692 353.55 343.955 354.794 345.559 355.287L347.01 355.734C348.466 356.182 350.037 355.56 350.792 354.238V354.238C351.243 353.449 351.344 352.507 351.069 351.64L345.614 334.438C345.227 333.216 344.294 332.243 343.09 331.805V331.805Z" fill="#FF8B18"/>
<path d="M359.223 324.181C356.824 323.581 354.5 325.395 354.5 327.868V328.631C354.5 329.523 354.771 330.393 355.277 331.127L363.166 342.566C364.011 343.79 365.359 344.572 366.841 344.695L367.474 344.748C369.272 344.898 370.958 343.856 371.628 342.181V342.181C372.168 340.83 371.953 339.293 371.062 338.143L361.306 325.541C360.784 324.867 360.05 324.388 359.223 324.181V324.181Z" fill="#FF8B18"/>
<path d="M384.589 322.673C384.259 324.818 382.307 326.331 380.147 326.115V326.115C379.397 326.04 378.682 325.759 378.082 325.303L368.041 317.671C367.07 316.933 366.5 315.784 366.5 314.564V314.564C366.5 312.546 368.039 310.86 370.049 310.677L370.392 310.646C371.428 310.552 372.464 310.839 373.304 311.453L382.926 318.484C384.2 319.416 384.849 320.979 384.609 322.539L384.589 322.673Z" fill="#FF8B18"/>
<path d="M391.968 298.361C393.177 298.741 394 299.862 394 301.13V301.13C394 303.205 391.885 304.609 389.972 303.804L376.983 298.335C375.875 297.869 375.333 296.611 375.755 295.485V295.485C376.173 294.372 377.388 293.779 378.523 294.136L391.968 298.361Z" fill="#FF8B18"/>
<path d="M528.914 218.669C530.101 217.719 531.814 217.814 532.889 218.889V218.889C534.055 220.055 534.055 221.945 532.889 223.111V223.111C531.814 224.186 530.101 224.281 528.914 223.331V223.331C527.42 222.136 527.42 219.864 528.914 218.669V218.669Z" fill="#874A0D"/>
<path d="M544.279 233.957C543.536 234.562 542.468 234.557 541.732 233.943V233.943C540.81 233.175 540.766 231.775 541.638 230.951L556.305 217.076C557.481 215.963 559.361 216.107 560.355 217.385V217.385C561.27 218.561 561.078 220.252 559.924 221.194L544.279 233.957Z" fill="#874A0D"/>
<path d="M556.286 243.828C554.805 244.717 554.434 246.701 555.495 248.065V248.065C556.362 249.18 557.911 249.501 559.15 248.822L574.429 240.456C576.252 239.457 576.667 237.019 575.276 235.474V235.474C574.245 234.327 572.546 234.073 571.223 234.866L556.286 243.828Z" fill="#FF8B18"/>
<path d="M562.371 265.903C561.902 264.339 562.867 262.707 564.464 262.365L578.262 259.408C580.535 258.921 582.735 260.496 583.006 262.805V262.805C583.273 265.074 581.563 267.094 579.281 267.206L565.186 267.893C563.902 267.956 562.74 267.135 562.371 265.903V265.903Z" fill="#FF8B18"/>
<path d="M579.589 282.5C581.982 282.5 583.882 284.514 583.741 286.903V286.903C583.607 289.175 581.673 290.917 579.4 290.814L565.419 290.178C563.268 290.08 561.618 288.234 561.761 286.086V286.086C561.895 284.068 563.571 282.5 565.594 282.5H579.589Z" fill="#FF8B18"/>
<path d="M560.125 300.933C558.613 300.396 556.934 301.037 556.166 302.445V302.445C555.264 304.1 555.946 306.173 557.655 306.967L572.537 313.889C574.479 314.793 576.789 314.02 577.797 312.13V312.13C578.957 309.955 577.912 307.258 575.589 306.432L560.125 300.933Z" fill="#FF8B18"/>
<path d="M551.482 316.209C550.844 315.748 550.076 315.5 549.288 315.5V315.5C547.633 315.5 546.172 316.594 545.696 318.179V318.179C545.273 319.589 545.707 321.124 546.811 322.098L558.684 332.574C560.529 334.202 563.335 334.062 565.009 332.26V332.26C566.864 330.262 566.55 327.092 564.341 325.496L551.482 316.209Z" fill="#FF8B18"/>
<path d="M535.398 326C533.975 326 532.72 326.933 532.311 328.296L532.114 328.953C531.729 330.237 531.989 331.629 532.812 332.687L543.25 346.108C544.484 347.693 546.781 347.952 548.336 346.68V346.68C549.823 345.463 550.083 343.288 548.923 341.755L537.967 327.278C537.358 326.473 536.407 326 535.398 326V326Z" fill="#FF8B18"/>
<path d="M517.764 334.472C518.467 333.067 520.117 332.419 521.588 332.97V332.97C522.478 333.304 523.164 334.033 523.444 334.942L528.5 351.375C528.817 352.406 528.666 353.524 528.087 354.434V354.434C526.784 356.482 523.891 356.73 522.258 354.934L521.306 353.886C520.777 353.305 520.4 352.601 520.209 351.838L516.895 338.579C516.64 337.56 516.758 336.483 517.228 335.544L517.764 334.472Z" fill="#FF8B18"/>
<path d="M500.087 336.913C501.867 335.133 504.824 335.391 506.268 337.454V337.454C506.744 338.135 507 338.946 507 339.777V355.799C507 357.188 506.345 358.509 505.249 359.362V359.362C503.645 360.61 501.376 360.626 499.772 359.378V359.378C498.658 358.511 498.021 357.167 498.058 355.756L498.455 340.274C498.484 339.135 498.949 338.051 499.755 337.245L500.087 336.913Z" fill="#FF8B18"/>
<path d="M483.91 331.805C485.937 331.069 488.188 332.015 489.081 333.977L489.261 334.375C489.736 335.42 489.804 336.606 489.449 337.698L484.826 351.953C484.308 353.55 483.045 354.794 481.441 355.287L479.99 355.734C478.534 356.182 476.963 355.56 476.208 354.238V354.238C475.757 353.449 475.656 352.507 475.931 351.64L481.386 334.438C481.773 333.216 482.706 332.243 483.91 331.805V331.805Z" fill="#FF8B18"/>
<path d="M467.777 324.181C470.176 323.581 472.5 325.395 472.5 327.868V328.631C472.5 329.523 472.229 330.393 471.723 331.127L463.834 342.566C462.989 343.79 461.641 344.572 460.159 344.695L459.526 344.748C457.728 344.898 456.042 343.856 455.372 342.181V342.181C454.832 340.83 455.047 339.293 455.938 338.143L465.694 325.541C466.216 324.867 466.95 324.388 467.777 324.181V324.181Z" fill="#FF8B18"/>
<path d="M442.411 322.673C442.741 324.818 444.693 326.331 446.853 326.115V326.115C447.603 326.04 448.318 325.759 448.918 325.303L458.959 317.671C459.93 316.933 460.5 315.784 460.5 314.564V314.564C460.5 312.546 458.961 310.86 456.951 310.677L456.608 310.646C455.572 310.552 454.536 310.839 453.696 311.453L444.074 318.484C442.8 319.416 442.151 320.979 442.391 322.539L442.411 322.673Z" fill="#FF8B18"/>
<path d="M435.032 298.361C433.823 298.741 433 299.862 433 301.13V301.13C433 303.205 435.115 304.609 437.028 303.804L450.017 298.335C451.125 297.869 451.667 296.611 451.245 295.485V295.485C450.827 294.372 449.612 293.779 448.477 294.136L435.032 298.361Z" fill="#FF8B18"/>
<path d="M254 448.5C238.071 434.784 215.5 407 215.5 407C215.5 407 217.778 429.872 225.5 446.5L243 460.392L254 448.5Z" fill="#9B3904"/>
<path d="M269 454.5C261.229 467.172 255.785 472.866 244.5 481L250 489.29C260.269 485.468 265.871 482.547 275 473L279 476V462L269 454.5Z" fill="#9B3904"/>
<path d="M314 480C300.944 475.323 293.993 472.169 283 464.5L282.778 480L306 498L314 480Z" fill="#9B3904"/>
<path d="M333.5 512C337.476 526.141 342.332 530.137 354.499 532L362.999 516C341.449 525.872 334.941 517.513 330 486C326.345 496.865 323.988 502.802 317 512L324 527.5L333.5 512Z" fill="#9B3904"/>
<path d="M302 557.5L312.5 542.5L308.5 536L298 553.5L302 557.5Z" fill="#9B3904"/>
<path d="M386.499 557.5L372.999 538L356.999 562.5L365.999 564.5L373.999 553.5L380.999 563.5L386.499 557.5Z" fill="#9B3904"/>
<path d="M302.5 504.5L285.5 486L283.728 489.29L301 507.5L302.5 504.5Z" fill="#9B3904"/>
<path d="M267 498L279 486V481L265 496.18L267 498Z" fill="#9B3904"/>
<path d="M250 489.29L279 533V486L267 498L265 496.18L279 481V476L275 473C265.871 482.547 260.269 485.468 250 489.29Z" fill="#FF8B18"/>
<path d="M282.778 480L282 534.484C282.234 533.971 293.423 521.541 301 507.5L283.728 489.29L285.5 486L302.5 504.5L306 498L282.778 480Z" fill="#FF8B18"/>
<path d="M283 464.5L279 462V476V481V486V533L281.997 534.499C281.995 534.496 281.996 534.491 282 534.484L282.778 480L283 464.5Z" fill="#FFFEFE"/>
<path d="M235.5 468.5L243 460.392L225.5 446.5C228.916 457.941 235.5 468.5 235.5 468.5Z" fill="#FF8B18"/>
<path d="M328 563.5L312.5 542.5L302 557.5C311.678 565.464 317.419 566.196 328 563.5Z" fill="#FF8B18"/>
<path d="M298 553.5L308.5 536L306 532L294 548L298 553.5Z" fill="white"/>
<path d="M341.5 550.5L354.499 532C342.332 530.137 337.476 526.141 333.5 512L324 527.5L341.5 550.5Z" fill="#FF8B18"/>
<path d="M380.999 563.5L373.999 553.5L365.999 564.5L380.999 563.5Z" fill="#FF8B18"/>
<path d="M572.5 448.5C588.429 434.784 611 407 611 407C611 407 608.721 429.872 601 446.5L583.5 460.392L572.5 448.5Z" fill="#9B3904"/>
<path d="M557.5 454.5C565.271 467.172 570.715 472.866 582 481L576.5 489.29C566.23 485.468 560.628 482.547 551.5 473L547.5 476V462L557.5 454.5Z" fill="#9B3904"/>
<path d="M512.5 480C525.555 475.323 532.507 472.169 543.5 464.5L543.721 480L520.5 498L512.5 480Z" fill="#9B3904"/>
<path d="M493 512C489.023 526.141 484.167 530.137 472 532L463.5 516C485.05 525.872 491.559 517.513 496.5 486C500.155 496.865 502.512 502.802 509.5 512L502.5 527.5L493 512Z" fill="#9B3904"/>
<path d="M524.5 557.5L514 542.5L518 536L528.5 553.5L524.5 557.5Z" fill="#9B3904"/>
<path d="M440 557.5L453.5 538L469.5 562.5L460.5 564.5L452.5 553.5L445.5 563.5L440 557.5Z" fill="#9B3904"/>
<path d="M524 504.5L541 486L542.771 489.29L525.5 507.5L524 504.5Z" fill="#9B3904"/>
<path d="M559.5 498L547.5 486V481L561.5 496.18L559.5 498Z" fill="#9B3904"/>
<path d="M576.5 489.29L547.5 533V486L559.5 498L561.5 496.18L547.5 481V476L551.5 473C560.628 482.547 566.23 485.468 576.5 489.29Z" fill="#FF8B18"/>
<path d="M543.721 480L544.5 534.484C544.266 533.971 533.077 521.541 525.5 507.5L542.771 489.29L541 486L524 504.5L520.5 498L543.721 480Z" fill="#FF8B18"/>
<path d="M543.5 464.5L547.5 462V476V481V486V533L544.503 534.499C544.504 534.496 544.503 534.491 544.5 534.484L543.721 480L543.5 464.5Z" fill="#FFFEFE"/>
<path d="M591 468.5L583.5 460.392L601 446.5C597.584 457.941 591 468.5 591 468.5Z" fill="#FF8B18"/>
<path d="M498.5 563.5L514 542.5L524.5 557.5C514.821 565.464 509.081 566.196 498.5 563.5Z" fill="#FF8B18"/>
<path d="M528.5 553.5L518 536L520.5 532L532.5 548L528.5 553.5Z" fill="white"/>
<path d="M485 550.5L472 532C484.167 530.137 489.023 526.141 493 512L502.5 527.5L485 550.5Z" fill="#FF8B18"/>
<path d="M445.5 563.5L452.5 553.5L460.5 564.5L445.5 563.5Z" fill="#FF8B18"/>
<path d="M412 64C404.646 64.6308 398.905 68.3687 397 75.5C394.681 84.1812 401.45 92.9277 410.164 94.7282C406.028 93.3781 402.909 89.1869 403 80.5C403.263 55.305 428.335 71.5 428.335 71.5C425.108 66.0874 418.803 63.4166 412 64Z" fill="#D9D9D9"/>
<path d="M408.5 79.5C409 68 427 72 427 72L428.335 71.5C428.335 71.5 403.263 55.305 403 80.5C402.909 89.1869 406.028 93.3781 410.164 94.7282C410.768 94.8529 411.38 94.9443 412 95C419.707 95.6934 427.409 90.0676 429.719 83C429.719 83 408 91 408.5 79.5Z" fill="#FF8B18"/>
<path d="M427 72C427 72 409 68 408.5 79.5C408 91 429.719 83 429.719 83C430.503 80.6025 430.667 78.039 430 75.5C429.615 74.0355 429.051 72.7004 428.335 71.5L427 72Z" fill="black"/>
<path fill-rule="evenodd" clip-rule="evenodd" d="M412 48.5C396.261 49.3577 383.809 59.8422 382 75.5C379.968 93.0906 394.319 108.526 412 109.5C427.695 110.364 442.255 98.7622 445.157 84C445.697 81.2559 445.834 78.4027 445.5 75.5C445.217 73.0408 444.655 70.7004 443.848 68.5C439.177 55.7642 426.306 47.7203 412 48.5ZM397 75.5C398.905 68.3687 404.646 64.6308 412 64C418.803 63.4166 425.108 66.0874 428.335 71.5C429.051 72.7004 429.615 74.0355 430 75.5C430.667 78.039 430.503 80.6025 429.719 83C429.558 89.5995 418.025 97.2938 410.164 94.7282C401.45 92.9277 394.681 84.1812 397 75.5Z" fill="black"/>
<path d="M586 45.7543L571 51L456 72.5L443.848 68.5C444.655 70.7004 445.217 73.0408 445.5 75.5C445.834 78.4027 445.697 81.2559 445.157 84L462.5 87L593 61L631.5 75.5V80.3829L639.924 77.9415L621 59L648.348 75.5L652 74.4415L647 61.7946L586 45.7543Z" fill="black"/>
<path d="M172.5 65.5L412 144L426.5 139.798L200.5 68.5L412 10L571 51L586 45.7543L412 0L172.5 65.5Z" fill="#D9D9D9"/>
<path d="M200.5 68.5L426.5 139.798L631.5 80.3829V75.5L593 61L462.5 87L445.157 84C442.255 98.7622 427.695 110.364 412 109.5C394.319 108.526 379.968 93.0906 382 75.5C383.809 59.8422 396.261 49.3577 412 48.5C426.306 47.7203 439.177 55.7642 443.848 68.5L456 72.5L571 51L412 10L200.5 68.5Z" fill="#FF8B18"/>
<path d="M412 152V144L172.5 65.5L158.5 69L412 152Z" fill="#FF8B18"/>
<path d="M412 144V152L639.221 85.273L639.924 77.9415L631.5 80.3829L426.5 139.798L412 144Z" fill="#FF8B18"/>
<path d="M672.5 75.5V68.5L652 74.4415L648.348 75.5L648.775 82.4671L672.5 75.5Z" fill="#FF8B18"/>
<path d="M648.348 75.5L639.924 77.9415L639.221 85.273L648.775 82.4671L648.348 75.5Z" fill="#FF8B18"/>
<path d="M652 74.4415L672.5 68.5L659.75 65.1473L647 61.7946L652 74.4415Z" fill="#FF8B18"/>
<path d="M648.348 75.5L621 59L639.924 77.9415L648.348 75.5Z" fill="#FF8B18"/>
<path d="M645 135H652L648.775 82.4671L639.221 85.273L638 98L645 135Z" fill="#FF8B18"/>
<path d="M638 98V135H645L638 98Z" fill="white"/>
<path d="M229 520H224C225.279 546.278 250 560 251.5 557C252.049 555.902 249.547 552.986 246.021 548.876C239.911 541.755 230.726 531.049 229 520Z" fill="#FF8B18"/>
<path d="M229 520H224C225.279 546.278 250 560 251.5 557C252.049 555.902 249.547 552.986 246.021 548.876C239.911 541.755 230.726 531.049 229 520Z" stroke="black"/>
<path d="M66.0001 460.5C64.3069 453.966 63.6116 450.324 64.5001 444C77.6417 444.893 82.0574 450.964 89.0001 462.5C86.5691 455.561 86.3362 451.107 78.0001 444.5C71.3919 439.565 67.483 438.964 60.5001 438C60.2248 449.664 61.9966 453.916 66.0001 460.5Z" fill="#FEFEFE"/>
<path d="M89.0001 462.5C83.5114 456.544 80.6516 452.935 71.5001 451.5C74.7337 459.845 78.3607 462.028 85.5001 465L89.0001 462.5Z" fill="#9B3904"/>
<path d="M71.5001 451.5C80.6516 452.935 83.5114 456.544 89.0001 462.5C82.0574 450.964 77.6417 444.893 64.5001 444C63.6116 450.324 64.3069 453.966 66.0001 460.5C73.3022 467.635 77.588 468.34 85.5001 465C78.3607 462.028 74.7337 459.845 71.5001 451.5Z" fill="#FF8B18"/>
<path d="M41.551 397.539C42.8716 383.381 44.1002 375.667 50.3868 363.771C75.7872 374.946 80.1925 390.135 85.6939 417.962C85.8426 402.472 88.5686 393.48 76.779 374.423C67.2169 359.915 59.901 355.928 46.7546 349.02C37.8616 371.936 38.3299 381.628 41.551 397.539Z" fill="#FEFEFE"/>
<path d="M85.6939 417.962C79.0808 402.231 75.9965 393.034 58.8899 383.642C59.3253 402.491 64.9501 409.412 76.9696 420.411L85.6939 417.962Z" fill="#9B3904"/>
<path d="M58.8899 383.642C75.9965 393.034 79.0808 402.231 85.6939 417.962C80.1925 390.135 75.7872 374.946 50.3868 363.771C44.1002 375.667 42.8716 383.381 41.551 397.539C50.9141 416.902 58.9019 421.366 76.9696 420.411C64.9501 409.412 59.3253 402.491 58.8899 383.642Z" fill="#FF8B18"/>
<path d="M23.9201 483.353C16.8231 473.233 13.2932 467.432 10.7589 456.014C33.8734 449.113 45.343 456.692 64.6545 472.024C56.0318 461.682 52.7741 454.191 34.2358 448.208C19.7339 443.983 12.6438 445.462 0.0475406 448.289C7.0605 468.473 12.8277 474.628 23.9201 483.353Z" fill="#FEFEFE"/>
<path d="M64.6545 472.024C51.4176 465.329 44.1966 460.975 27.5786 464.386C38.48 476.625 46.102 478.041 60.2554 478.558L64.6545 472.024Z" fill="#9B3904"/>
<path d="M27.5786 464.386C44.1966 460.975 51.4176 465.329 64.6545 472.024C45.343 456.692 33.8734 449.113 10.7589 456.014C13.2932 467.432 16.8231 473.233 23.9201 483.353C41.0234 490.905 48.8272 489.364 60.2554 478.558C46.102 478.041 38.48 476.625 27.5786 464.386Z" fill="#FF8B18"/>
<path d="M83.5 481.5C91.5937 478.225 96.7164 479.196 106.5 484C102.88 478.939 100.061 477.027 93 476C87.4315 476.011 84.9629 476.721 81.5 479L83.5 481.5Z" fill="white"/>
<path d="M106.5 484C96.7164 479.196 91.5937 478.225 83.5 481.5C86.1295 485.996 88.3716 487.957 93 491C96.9041 491.836 99.0954 491.878 103 491C105.225 489.783 106.438 488.781 108.5 486L106.5 484Z" fill="#FF8B18"/>
<path d="M104.5 410.5C98.8983 417.823 96.3119 422.936 94.2976 434.257C94.0925 435.411 94.0365 436.593 94.1414 437.76C94.9958 447.256 96.9821 451.636 101.5 458L99.4625 450.665C99.1564 449.563 99.0416 448.417 99.1231 447.276L100.312 430.636C100.435 428.908 101.005 427.242 101.966 425.801L104.167 422.499C104.86 421.459 106.327 421.303 107.224 422.174L113.227 428C111.798 421.852 109.329 417.104 104.5 410.5Z" fill="white"/>
<path d="M108.5 458C113.953 450.246 115.702 445.547 114.5 436C114.181 432.994 113.783 430.391 113.227 428L107.224 422.174C106.327 421.303 104.86 421.459 104.167 422.499L101.966 425.801C101.005 427.242 100.435 428.908 100.312 430.636L99.1231 447.276C99.0416 448.417 99.1564 449.563 99.4625 450.665L101.5 458L105.798 437.369C105.916 436.805 106.738 436.855 106.786 437.43L108.5 458Z" fill="#FF8B18"/>
<path d="M106.786 437.43C106.738 436.855 105.916 436.805 105.798 437.369L101.5 458H108.5L106.786 437.43Z" fill="#9B3904"/>
<path d="M237 559.5C237.5 556 184.289 543.12 170 515.5H164.5C166.236 522.845 168.345 526.637 173.5 533C144.047 508.472 126.227 496.25 108.5 458H101.5C104.694 467.279 106.631 472.434 112 481C121.714 496.163 128.049 503.433 140 515.5C154.601 530.033 163.499 534.906 179.5 543C200.521 554.865 236.5 563 237 559.5Z" fill="#FF8B18"/>
<path d="M167.5 467C160.114 475.571 158.002 481.031 156.5 491.5C155.208 501.524 157.402 504.626 161.5 510H164.5L164.372 509.691C161.59 502.989 159.991 499.137 161.5 491.5C163.336 482.515 165.829 478.585 171.5 472.5L167.5 467Z" fill="white"/>
<path d="M171.5 472.5C165.829 478.585 163.336 482.515 161.5 491.5C159.991 499.137 161.59 502.989 164.372 509.691L164.5 510C164.838 501.412 165.654 496.696 168.5 488.5C170.749 497.009 170.864 501.701 170 510C175.029 504.246 177.438 500.778 176.5 491.5C176.736 483.128 175.71 478.938 171.5 472.5Z" fill="#FF8B18"/>
<path d="M164.5 510H170C170.864 501.701 170.749 497.009 168.5 488.5C165.654 496.696 164.838 501.412 164.5 510Z" fill="#9B3904"/>
<path d="M129.5 469C129.858 481.141 131.995 483.623 136.5 486.5C134.004 480.231 132.967 476.581 134 469C134.717 460.115 136.47 455.79 142.5 449.5L139.661 445.038C139.32 444.503 138.571 444.417 138.132 444.875C132.544 450.704 130.857 456.628 129.5 469Z" fill="white"/>
<path d="M142.5 449.5C136.47 455.79 134.717 460.115 134 469C132.967 476.581 134.004 480.231 136.5 486.5L136.789 484.877C138.39 475.883 139.558 469.32 140.136 466.057C140.283 465.229 141.251 465.009 141.567 465.788C142.868 468.999 142.954 474.905 142.5 486.5C147.261 482.085 148.895 478.479 149 469C148.304 460.688 147.33 456.249 142.5 449.5Z" fill="#FF8B18"/>
<path d="M136.5 486.5H142.5C142.954 474.905 142.868 468.999 141.567 465.788C141.251 465.009 140.283 465.229 140.136 466.057C139.558 469.32 138.39 475.883 136.789 484.877L136.5 486.5Z" fill="#9B3904"/>
<path d="M181.674 581.806C195.246 577.368 197.334 574.133 199.081 568.096C192.841 572.995 189.071 575.378 180.178 576.732C169.92 578.876 164.46 578.338 155.363 573.628L150.324 579.403C159.323 584.455 166.55 584.518 181.674 581.806Z" fill="white"/>
<path d="M155.363 573.628C164.46 578.338 169.92 578.876 180.178 576.732C189.071 575.378 192.841 572.995 199.081 568.096L197.155 568.31C183.173 569.861 174.139 570.864 172.379 571.064C174.586 567.592 180.894 565.422 197.087 561.33C190.526 557.429 185.916 556.785 175.192 559.817C166.05 563.365 161.368 565.939 155.363 573.628Z" fill="#FF8B18"/>
<path d="M199.081 568.096L197.087 561.33C180.894 565.422 174.586 567.592 172.379 571.064C174.139 570.864 183.173 569.861 197.155 568.31L199.081 568.096Z" fill="#9B3904"/>
<path d="M119.724 520.662C132.271 519.183 135.15 521.005 138.796 525.203C131.965 523.588 128.052 523.076 120.409 525.293C111.375 527.382 107.191 529.843 101.637 537.005L95.4453 534.241C100.794 526.84 106.574 524.105 119.724 520.662Z" fill="white"/>
<path d="M101.637 537.005C107.191 529.843 111.375 527.382 120.409 525.293C128.052 523.076 131.965 523.588 138.796 525.203L137.17 525.747C125.367 529.696 117.74 532.248 116.253 532.742C119.315 534.71 125.186 534.107 139.709 531.376C135.89 536.947 132.428 539.177 122.691 540.727C114.032 541.275 109.316 540.948 101.637 537.005Z" fill="#FF8B18"/>
<path d="M138.796 525.203L139.709 531.376C125.186 534.107 119.315 534.71 116.253 532.742C117.74 532.248 125.367 529.696 137.17 525.747L138.796 525.203Z" fill="#9B3904"/>
<path d="M77.724 503.662C90.2713 502.183 93.1499 504.005 96.7958 508.203C89.9652 506.588 86.0521 506.076 78.4086 508.293C69.3755 510.382 65.1914 512.843 59.637 520.005L53.4453 517.241C58.7939 509.84 64.5735 507.105 77.724 503.662Z" fill="white"/>
<path d="M59.637 520.005C65.1914 512.843 69.3755 510.382 78.4086 508.293C86.0521 506.076 89.9652 506.588 96.7958 508.203L95.1697 508.747C83.3666 512.696 75.7404 515.248 74.2527 515.742C77.3145 517.71 83.1857 517.107 97.7086 514.376C93.8896 519.947 90.428 522.177 80.6906 523.727C72.0319 524.275 67.3158 523.948 59.637 520.005Z" fill="#FF8B18"/>
<path d="M96.7958 508.203L97.7086 514.376C83.1857 517.107 77.3145 517.71 74.2527 515.742C75.7404 515.248 83.3666 512.696 95.1697 508.747L96.7958 508.203Z" fill="#9B3904"/>
<path d="M148.674 565.806C162.246 561.368 164.334 558.133 166.081 552.096C159.841 556.995 156.071 559.378 147.178 560.732C136.92 562.876 131.46 562.338 122.363 557.628L117.324 563.403C126.323 568.455 133.55 568.518 148.674 565.806Z" fill="white"/>
<path d="M122.363 557.628C131.46 562.338 136.92 562.876 147.178 560.732C156.071 559.378 159.841 556.995 166.081 552.096L164.155 552.31C150.173 553.861 141.139 554.864 139.379 555.064C141.586 551.592 147.894 549.422 164.087 545.33C157.526 541.429 152.916 540.785 142.192 543.817C133.05 547.365 128.368 549.939 122.363 557.628Z" fill="#FF8B18"/>
<path d="M166.081 552.096L164.087 545.33C147.894 549.422 141.586 551.592 139.379 555.064C141.139 554.864 150.173 553.861 164.155 552.31L166.081 552.096Z" fill="#9B3904"/>
<path d="M597.576 520H602.576C601.297 546.278 576.576 560 575.076 557C573.576 554 594.854 537.426 597.576 520Z" fill="#FF8B18"/>
<path d="M760.576 460.5C762.269 453.966 762.964 450.324 762.076 444C748.934 444.893 744.518 450.964 737.576 462.5C740.007 455.561 740.239 451.107 748.576 444.5C755.184 439.565 759.093 438.964 766.076 438C766.351 449.664 764.579 453.916 760.576 460.5Z" fill="#FEFEFE"/>
<path d="M737.576 462.5C743.064 456.544 745.924 452.935 755.076 451.5C751.842 459.845 748.215 462.028 741.076 465L737.576 462.5Z" fill="#9B3904"/>
<path d="M755.076 451.5C745.924 452.935 743.064 456.544 737.576 462.5C744.518 450.964 748.934 444.893 762.076 444C762.964 450.324 762.269 453.966 760.576 460.5C753.274 467.635 748.988 468.34 741.076 465C748.215 462.028 751.842 459.845 755.076 451.5Z" fill="#FF8B18"/>
<path d="M785.025 397.539C783.704 383.381 782.475 375.667 776.189 363.771C750.789 374.946 746.383 390.135 740.882 417.962C740.733 402.472 738.007 393.48 749.797 374.423C759.359 359.915 766.675 355.928 779.821 349.02C788.714 371.936 788.246 381.628 785.025 397.539Z" fill="#FEFEFE"/>
<path d="M740.882 417.962C747.495 402.231 750.579 393.034 767.686 383.642C767.25 402.491 761.626 409.412 749.606 420.411L740.882 417.962Z" fill="#9B3904"/>
<path d="M767.686 383.642C750.579 393.034 747.495 402.231 740.882 417.962C746.383 390.135 750.789 374.946 776.189 363.771C782.475 375.667 783.704 383.381 785.025 397.539C775.662 416.902 767.674 421.366 749.606 420.411C761.626 409.412 767.25 402.491 767.686 383.642Z" fill="#FF8B18"/>
<path d="M802.656 483.353C809.753 473.233 813.282 467.432 815.817 456.014C792.702 449.113 781.233 456.692 761.921 472.024C770.544 461.682 773.802 454.191 792.34 448.208C806.842 443.983 813.932 445.462 826.528 448.289C819.515 468.473 813.748 474.628 802.656 483.353Z" fill="#FEFEFE"/>
<path d="M761.921 472.024C775.158 465.329 782.379 460.975 798.997 464.386C788.096 476.625 780.474 478.041 766.32 478.558L761.921 472.024Z" fill="#9B3904"/>
<path d="M798.997 464.386C782.379 460.975 775.158 465.329 761.921 472.024C781.233 456.692 792.702 449.113 815.817 456.014C813.282 467.432 809.753 473.233 802.656 483.353C785.552 490.905 777.749 489.364 766.32 478.558C780.474 478.041 788.096 476.625 798.997 464.386Z" fill="#FF8B18"/>
<path d="M743.076 481.5C734.982 478.225 729.859 479.196 720.076 484C723.696 478.939 726.514 477.027 733.576 476C739.144 476.011 741.613 476.721 745.076 479L743.076 481.5Z" fill="white"/>
<path d="M720.076 484C729.859 479.196 734.982 478.225 743.076 481.5C740.446 485.996 738.204 487.957 733.576 491C729.672 491.836 727.48 491.878 723.576 491C721.351 489.783 720.137 488.781 718.076 486L720.076 484Z" fill="#FF8B18"/>
<path d="M722.076 410.5C727.677 417.823 730.264 422.936 732.278 434.257C732.483 435.411 732.539 436.593 732.434 437.76C731.58 447.256 729.594 451.636 725.076 458L727.113 450.665C727.419 449.563 727.534 448.417 727.453 447.276L726.264 430.636C726.141 428.908 725.571 427.242 724.61 425.801L722.409 422.499C721.715 421.459 720.248 421.303 719.351 422.174L713.349 428C714.778 421.852 717.247 417.104 722.076 410.5Z" fill="white"/>
<path d="M718.076 458C712.623 450.246 710.873 445.547 712.076 436C712.394 432.994 712.793 430.391 713.349 428L719.351 422.174C720.248 421.303 721.715 421.459 722.409 422.499L724.61 425.801C725.571 427.242 726.141 428.908 726.264 430.636L727.453 447.276C727.534 448.417 727.419 449.563 727.113 450.665L725.076 458L720.778 437.369C720.66 436.805 719.838 436.855 719.79 437.43L718.076 458Z" fill="#FF8B18"/>
<path d="M719.79 437.43C719.838 436.855 720.66 436.805 720.778 437.369L725.076 458H718.076L719.79 437.43Z" fill="#9B3904"/>
<path d="M589.576 559.5C589.076 556 642.286 543.12 656.576 515.5H662.076C660.34 522.845 658.23 526.637 653.076 533C682.529 508.472 700.349 496.25 718.076 458H725.076C721.882 467.279 719.945 472.434 714.576 481C704.862 496.163 698.526 503.433 686.576 515.5C671.975 530.033 663.077 534.906 647.076 543C626.055 554.865 590.076 563 589.576 559.5Z" fill="#FF8B18"/>
<path d="M659.076 467C666.462 475.571 668.574 481.031 670.076 491.5C671.367 501.524 669.173 504.626 665.076 510H662.076L662.204 509.691C664.986 502.989 666.585 499.137 665.076 491.5C663.24 482.515 660.746 478.585 655.076 472.5L659.076 467Z" fill="white"/>
<path d="M655.076 472.5C660.746 478.585 663.24 482.515 665.076 491.5C666.585 499.137 664.986 502.989 662.204 509.691L662.076 510C661.738 501.412 660.921 496.696 658.076 488.5C655.827 497.009 655.712 501.701 656.576 510C651.547 504.246 649.138 500.778 650.076 491.5C649.84 483.128 650.866 478.938 655.076 472.5Z" fill="#FF8B18"/>
<path d="M662.076 510H656.576C655.712 501.701 655.827 497.009 658.076 488.5C660.921 496.696 661.738 501.412 662.076 510Z" fill="#9B3904"/>
<path d="M697.075 469C696.718 481.141 694.581 483.623 690.075 486.5C692.571 480.231 693.609 476.581 692.575 469C691.858 460.115 690.106 455.79 684.075 449.5L686.915 445.038C687.256 444.503 688.005 444.417 688.444 444.875C694.031 450.704 695.718 456.628 697.075 469Z" fill="white"/>
<path d="M684.075 449.5C690.106 455.79 691.858 460.115 692.575 469C693.609 476.581 692.571 480.231 690.075 486.5L689.787 484.877C688.186 475.883 687.018 469.32 686.439 466.057C686.292 465.229 685.324 465.009 685.009 465.788C683.708 468.999 683.622 474.905 684.075 486.5C679.315 482.085 677.681 478.479 677.575 469C678.272 460.688 679.246 456.249 684.075 449.5Z" fill="#FF8B18"/>
<path d="M690.075 486.5H684.075C683.622 474.905 683.708 468.999 685.009 465.788C685.324 465.009 686.292 465.229 686.439 466.057C687.018 469.32 688.186 475.883 689.787 484.877L690.075 486.5Z" fill="#9B3904"/>
<path d="M644.902 581.806C631.329 577.368 629.241 574.133 627.494 568.096C633.734 572.995 637.505 575.378 646.398 576.732C656.656 578.876 662.116 578.338 671.213 573.628L676.252 579.403C667.253 584.455 660.025 584.518 644.902 581.806Z" fill="white"/>
<path d="M671.213 573.628C662.116 578.338 656.656 578.876 646.398 576.732C637.505 575.378 633.734 572.995 627.494 568.096L629.421 568.31C643.403 569.861 652.436 570.864 654.197 571.064C651.99 567.592 645.682 565.422 629.489 561.33C636.05 557.429 640.659 556.785 651.384 559.817C660.525 563.365 665.208 565.939 671.213 573.628Z" fill="#FF8B18"/>
<path d="M627.494 568.096L629.489 561.33C645.682 565.422 651.99 567.592 654.197 571.064C652.436 570.864 643.403 569.861 629.421 568.31L627.494 568.096Z" fill="#9B3904"/>
<path d="M706.852 520.662C694.304 519.183 691.426 521.005 687.78 525.203C694.61 523.588 698.524 523.076 706.167 525.293C715.2 527.382 719.384 529.843 724.939 537.005L731.13 534.241C725.782 526.84 720.002 524.105 706.852 520.662Z" fill="white"/>
<path d="M724.939 537.005C719.384 529.843 715.2 527.382 706.167 525.293C698.524 523.076 694.61 523.588 687.78 525.203L689.406 525.747C701.209 529.696 708.835 532.248 710.323 532.742C707.261 534.71 701.39 534.107 686.867 531.376C690.686 536.947 694.148 539.177 703.885 540.727C712.544 541.275 717.26 540.948 724.939 537.005Z" fill="#FF8B18"/>
<path d="M687.78 525.203L686.867 531.376C701.39 534.107 707.261 534.71 710.323 532.742C708.835 532.248 701.209 529.696 689.406 525.747L687.78 525.203Z" fill="#9B3904"/>
<path d="M748.852 503.662C736.304 502.183 733.426 504.005 729.78 508.203C736.61 506.588 740.524 506.076 748.167 508.293C757.2 510.382 761.384 512.843 766.939 520.005L773.13 517.241C767.782 509.84 762.002 507.105 748.852 503.662Z" fill="white"/>
<path d="M766.939 520.005C761.384 512.843 757.2 510.382 748.167 508.293C740.524 506.076 736.61 506.588 729.78 508.203L731.406 508.747C743.209 512.696 750.835 515.248 752.323 515.742C749.261 517.71 743.39 517.107 728.867 514.376C732.686 519.947 736.148 522.177 745.885 523.727C754.544 524.275 759.26 523.948 766.939 520.005Z" fill="#FF8B18"/>
<path d="M729.78 508.203L728.867 514.376C743.39 517.107 749.261 517.71 752.323 515.742C750.835 515.248 743.209 512.696 731.406 508.747L729.78 508.203Z" fill="#9B3904"/>
<path d="M677.902 565.806C664.329 561.368 662.241 558.133 660.494 552.096C666.734 556.995 670.505 559.378 679.398 560.732C689.656 562.876 695.116 562.338 704.213 557.628L709.252 563.403C700.253 568.455 693.025 568.518 677.902 565.806Z" fill="white"/>
<path d="M704.213 557.628C695.116 562.338 689.656 562.876 679.398 560.732C670.505 559.378 666.734 556.995 660.494 552.096L662.421 552.31C676.403 553.861 685.436 554.864 687.197 555.064C684.99 551.592 678.682 549.422 662.489 545.33C669.05 541.429 673.659 540.785 684.384 543.817C693.525 547.365 698.208 549.939 704.213 557.628Z" fill="#FF8B18"/>
<path d="M660.494 552.096L662.489 545.33C678.682 549.422 684.99 551.592 687.197 555.064C685.436 554.864 676.403 553.861 662.421 552.31L660.494 552.096Z" fill="#9B3904"/>
</svg>
